<svg xmlns="http://www.w3.org/2000/svg" viewBox="0 0 512 512" width="512" height="512"><path d="M512 159.2h-90.24C326.08 76 185.92 76 90.24 159.2H0s20.48 24.96 28.8 48.32C10.88 229.28 0 256.8 0 287.2c0 70.72 57.28 128 128 128 41.92 0 79.04-20.48 102.4-51.84l26.88 51.84 24.64-51.52c23.36 31.04 60.16 51.52 102.08 51.52 70.72 0 128-57.28 128-128 0-30.4-10.88-57.92-28.8-79.68 8.32-23.36 28.8-48.32 28.8-48.32zm-384 224c-52.8 0-96-43.2-96-96s43.2-96 96-96 96 43.2 96 96-43.2 96-96 96zm256 0c-52.8 0-96-43.2-96-96s43.2-96 96-96 96 43.2 96 96-43.2 96-96 96z" fill="#FFF"/><path d="M128 223.2c-35.296 0-64 28.704-64 64s28.704 64 64 64 64-28.704 64-64-28.704-64-64-64zm0 96c-17.632 0-32-14.368-32-32 0-17.632 14.368-32 32-32s32 14.368 32 32c0 17.632-14.368 32-32 32zm256-96c-35.296 0-64 28.704-64 64s28.704 64 64 64 64-28.704 64-64-28.704-64-64-64zm0 96c-17.664 0-32-14.368-32-32 0-17.632 14.336-32 32-32s32 14.368 32 32c0 17.632-14.336 32-32 32z" fill="#FFF"/><circle cx="128" cy="287.2" r="16" fill="#FFF"/><circle cx="384" cy="287.2" r="16" fill="#FFF"/></svg>