<svg id="Layer_1" data-name="Layer 1" xmlns="http://www.w3.org/2000/svg" viewBox="0 0 60 60"><defs><style>.cls-1{fill:#fff;}.cls-2{fill:#3d3d3d;}</style></defs><rect class="cls-1" width="60" height="60"/><polygon class="cls-2" points="0 0 0 0 0 0 0 0 0 0"/><path class="cls-2" d="M6.48,30A8.15,8.15,0,0,0,0,22v.63A7.54,7.54,0,0,1,5.87,30,7.54,7.54,0,0,1,0,37.33V38A8.15,8.15,0,0,0,6.48,30Z"/><path class="cls-2" d="M1.62,30A3.26,3.26,0,0,0,0,27.2v.64A2.73,2.73,0,0,1,1.08,30,2.73,2.73,0,0,1,0,32.16v.64A3.26,3.26,0,0,0,1.62,30Z"/><path class="cls-2" d="M4.2,30A5.85,5.85,0,0,0,0,24.4V25a5.31,5.31,0,0,1,3.66,5A5.31,5.31,0,0,1,0,35v.56A5.85,5.85,0,0,0,4.2,30Z"/><path class="cls-2" d="M8.76,30A10.42,10.42,0,0,0,0,19.74v.62A9.79,9.79,0,0,1,8.14,30,9.79,9.79,0,0,1,0,39.64v.62A10.42,10.42,0,0,0,8.76,30Z"/><polygon class="cls-2" points="0 60 0 60 0 60 0 60"/><path class="cls-2" d="M11.41,30A13.07,13.07,0,0,0,0,17.06v.7A12.37,12.37,0,0,1,10.72,30,12.37,12.37,0,0,1,0,42.24v.7A13.07,13.07,0,0,0,11.41,30Z"/><path class="cls-2" d="M59.93.92,60,0l-.92.07c-.53,0-1.06.11-1.58.18,0-.08,0-.17,0-.25h-.92c0,.13,0,.26,0,.39-.53.09-1,.2-1.56.31,0-.23,0-.46.05-.7h-.84c0,.3,0,.6-.07.9q-.84.22-1.65.48c.06-.45.11-.91.14-1.38h-.83c-.05.57-.11,1.13-.19,1.68-.6.21-1.19.44-1.76.69A23.29,23.29,0,0,0,50.19,0h-.77A20.87,20.87,0,0,1,49,2.76c-.68.32-1.34.66-2,1A17.47,17.47,0,0,0,47.76,0H47a17.18,17.18,0,0,1-1,4.37c-.86.53-1.7,1.1-2.5,1.71a15.57,15.57,0,0,0,2-6.08h-.69A14.8,14.8,0,0,1,41.6,7.64,31.46,31.46,0,0,0,39.29,10,14.76,14.76,0,0,1,30,13.23,14.78,14.78,0,0,1,20.71,10,31.46,31.46,0,0,0,18.4,7.64,14.79,14.79,0,0,1,15.23,0h-.7a15.57,15.57,0,0,0,2,6.08Q15.31,5.16,14,4.37A17.09,17.09,0,0,1,13,0h-.76A18.09,18.09,0,0,0,13,3.78q-1-.54-2-1A19.35,19.35,0,0,1,10.59,0H9.82a20.77,20.77,0,0,0,.32,2.37C9.57,2.12,9,1.89,8.39,1.68,8.3,1.13,8.24.57,8.2,0H7.36c0,.47.08.93.14,1.38C7,1.21,6.41,1.05,5.86.9c0-.3-.05-.6-.07-.9H5C5,.24,5,.47,5,.7,4.48.59,4,.48,3.44.39l0-.39H2.49c0,.08,0,.17,0,.25C2,.18,1.46.12.93.07L0,0,.07.92C.12,1.46.18,2,.25,2.5H0v.92l.39,0C.48,4,.59,4.48.7,5,.47,5,.24,5,0,4.94v.84c.3,0,.61,0,.9.08.15.55.31,1.1.48,1.64C.93,7.44.47,7.39,0,7.36V8.2c.57,0,1.13.1,1.68.19.22.59.44,1.18.69,1.75A20.47,20.47,0,0,0,0,9.82v.76A20.63,20.63,0,0,1,2.76,11q.48,1,1,2A17.47,17.47,0,0,0,0,12.24V13a17.18,17.18,0,0,1,4.37,1,29,29,0,0,0,1.71,2.5,15.57,15.57,0,0,0-6.08-2v.69A14.8,14.8,0,0,1,7.64,18.4,31.46,31.46,0,0,0,10,20.71,14.78,14.78,0,0,1,13.23,30,14.78,14.78,0,0,1,10,39.29a29.48,29.48,0,0,0-2.3,2.31A14.86,14.86,0,0,1,0,44.77v.7a15.57,15.57,0,0,0,6.08-2Q5.16,44.69,4.37,46A16.78,16.78,0,0,1,0,47v.76A17.47,17.47,0,0,0,3.78,47c-.36.65-.7,1.31-1,2A22.37,22.37,0,0,1,0,49.42v.76a20.47,20.47,0,0,0,2.37-.32c-.25.57-.47,1.16-.69,1.75-.55.09-1.11.15-1.68.19v.84c.47,0,.93-.08,1.38-.14-.17.54-.33,1.09-.48,1.64-.29,0-.6.06-.9.08v.84c.24,0,.47,0,.7-.06-.11.52-.22,1-.31,1.57l-.39,0v.92l.25,0c-.07.53-.13,1-.18,1.59L0,60H0l.93-.07c.53,0,1-.11,1.58-.18,0,.08,0,.17,0,.25h.92l0-.39c.52-.09,1-.2,1.56-.31,0,.23,0,.47,0,.7h.84c0-.3,0-.6.07-.9.55-.15,1.1-.31,1.64-.48-.06.45-.1.92-.14,1.38H8.2c0-.57.1-1.13.19-1.68.59-.21,1.18-.44,1.75-.69A20.77,20.77,0,0,0,9.82,60h.77A19.35,19.35,0,0,1,11,57.24q1-.48,2-1A18.23,18.23,0,0,0,12.24,60H13a16.78,16.78,0,0,1,1-4.37q1.29-.8,2.49-1.71a15.62,15.62,0,0,0-2,6.08h.7a14.79,14.79,0,0,1,3.17-7.64,31.46,31.46,0,0,0,2.31-2.31,14.8,14.8,0,0,1,18.58,0,31.46,31.46,0,0,0,2.31,2.31A14.8,14.8,0,0,1,44.78,60h.69a15.62,15.62,0,0,0-2-6.08c.8.61,1.64,1.18,2.5,1.71A17.18,17.18,0,0,1,47,60h.76A17.6,17.6,0,0,0,47,56.22c.65.36,1.31.7,2,1A19.35,19.35,0,0,1,49.42,60h.77a23.29,23.29,0,0,0-.33-2.37c.57.25,1.16.48,1.76.69.08.55.14,1.11.19,1.68h.83c0-.46-.08-.93-.14-1.38q.81.26,1.65.48c0,.3.05.6.07.9h.84c0-.23,0-.47-.05-.7.51.11,1,.22,1.56.31,0,.13,0,.26,0,.39h.92c0-.08,0-.17,0-.25.52.07,1,.13,1.58.18L60,60l-.07-.92c0-.54-.1-1.06-.18-1.59l.25,0v-.92l-.39,0c-.09-.53-.2-1-.31-1.57.23,0,.46,0,.7.06v-.84c-.3,0-.6,0-.9-.08-.14-.55-.31-1.1-.48-1.64.45.06.91.11,1.38.14V51.8c-.57,0-1.13-.1-1.68-.19-.21-.59-.44-1.18-.69-1.75a20.77,20.77,0,0,0,2.37.32v-.76A22.67,22.67,0,0,1,57.24,49c-.32-.68-.66-1.34-1-2a17.47,17.47,0,0,0,3.78.76V47a16.78,16.78,0,0,1-4.37-1q-.8-1.29-1.71-2.49a15.62,15.62,0,0,0,6.08,2v-.7a14.79,14.79,0,0,1-7.64-3.17,31.46,31.46,0,0,0-2.31-2.31,14.8,14.8,0,0,1,0-18.58,31.46,31.46,0,0,0,2.31-2.31A14.89,14.89,0,0,1,60,15.22v-.69a15.62,15.62,0,0,0-6.08,2A29,29,0,0,0,55.63,14,17.18,17.18,0,0,1,60,13v-.76a17.47,17.47,0,0,0-3.78.76q.54-1,1-2A20.89,20.89,0,0,1,60,10.58V9.82a20.77,20.77,0,0,0-2.37.32c.25-.57.48-1.16.69-1.75.55-.09,1.11-.15,1.68-.19V7.36c-.47,0-.93.08-1.38.14.17-.54.34-1.09.48-1.64.3,0,.6-.06.9-.08V4.94c-.24,0-.47,0-.7.06.11-.52.22-1,.31-1.57l.39,0V2.49h-.25C59.83,2,59.88,1.46,59.93.92Zm-5,.75q.8-.19,1.59-.33c-.06.55-.14,1.09-.23,1.63-.55.11-1.09.23-1.63.37C54.73,2.79,54.82,2.23,54.89,1.67Zm-.5,2.69c.55-.16,1.1-.3,1.67-.42-.12.57-.26,1.12-.42,1.67-.59.15-1.18.32-1.75.51C54.07,5.54,54.24,5,54.39,4.36ZM52.06,49.65a26.59,26.59,0,0,0-1.91-3,19.84,19.84,0,0,0,2.94,1.69q.61,1.08,1.14,2.22C53.49,50.3,52.77,50,52.06,49.65Zm2.63,2c.24.6.47,1.21.67,1.84-.62-.17-1.23-.36-1.82-.57-.26-.69-.55-1.36-.86-2Q53.66,51.28,54.69,51.61Zm-48.92-1c.35-.76.73-1.5,1.15-2.22a20.37,20.37,0,0,0,2.94-1.69,25.32,25.32,0,0,0-1.92,3A23.14,23.14,0,0,1,5.77,50.57Zm1.55.29c-.31.66-.6,1.33-.86,2-.59.21-1.2.4-1.81.57.2-.63.42-1.24.67-1.84C6,51.39,6.67,51.14,7.32,50.86Zm.62-40.51a25.32,25.32,0,0,0,1.92,3,20.37,20.37,0,0,0-2.94-1.69c-.42-.72-.8-1.46-1.15-2.22A23.14,23.14,0,0,1,7.94,10.35Zm-2.62-2c-.25-.6-.47-1.21-.67-1.84.61.17,1.22.36,1.81.57.26.69.55,1.36.86,2C6.67,8.86,6,8.61,5.32,8.39ZM41.79,34c-.57-.25-1.16-.48-1.75-.69a21.45,21.45,0,0,1,0-6.66c.59-.21,1.18-.44,1.75-.69a20.4,20.4,0,0,0,0,8Zm-3,4.09c-.21-.59-.4-1.2-.57-1.82.63.2,1.24.43,1.84.68.22.68.47,1.35.75,2C40.13,38.66,39.46,38.37,38.77,38.11Zm2.61,2.1a23.1,23.1,0,0,0,1.78,2.95,24.38,24.38,0,0,0-2.95-1.79,21,21,0,0,1-1-2.2C39.93,39.48,40.66,39.83,41.38,40.21ZM39.15,27a22,22,0,0,0,0,6.06c-.54-.17-1.09-.34-1.64-.48a23.29,23.29,0,0,1,0-5.1C38.06,27.31,38.61,27.14,39.15,27Zm-1.52-.51c.09-.58.19-1.15.32-1.71.6-.18,1.18-.38,1.76-.6-.16.59-.29,1.19-.4,1.8C38.76,26.13,38.2,26.31,37.63,26.46Zm1.68,7.59c.11.61.24,1.21.4,1.8-.58-.22-1.16-.42-1.76-.6-.13-.56-.23-1.13-.32-1.71C38.2,33.69,38.76,33.87,39.31,34.05ZM38.2,23.71c.17-.62.36-1.23.57-1.82.69-.26,1.36-.55,2-.86-.28.65-.53,1.32-.75,2C39.44,23.28,38.83,23.51,38.2,23.71Zm1-2.88a21,21,0,0,1,1-2.2,23.17,23.17,0,0,0,2.95-1.79,23.1,23.1,0,0,0-1.78,2.95C40.66,20.17,39.93,20.52,39.18,20.83ZM41,17.24a24.38,24.38,0,0,1,7.87-7.88A22.09,22.09,0,0,1,41,17.24ZM39.59,18a21.71,21.71,0,0,1-2.17.92c.35-.76.73-1.5,1.15-2.22A18.9,18.9,0,0,0,41.5,15,26.59,26.59,0,0,0,39.59,18ZM39,19.21c-.31.66-.6,1.33-.86,2-.59.21-1.2.4-1.82.57.21-.62.43-1.24.68-1.84C37.65,19.74,38.32,19.49,39,19.21Zm-1.21,3c-.18.57-.35,1.16-.5,1.75-.55.16-1.1.3-1.67.42.12-.57.27-1.12.42-1.67C36.6,22.59,37.19,22.42,37.76,22.24ZM36.65,32.35c-.52-.12-1-.22-1.57-.31,0-.67-.08-1.35-.08-2s0-1.37.08-2c.53-.09,1.05-.19,1.57-.31a23.07,23.07,0,0,0,0,4.7Zm.11,1c.07.56.16,1.12.27,1.67-.53-.14-1.08-.27-1.62-.37-.1-.54-.18-1.09-.24-1.63Q36,33.13,36.76,33.32Zm0-6.64q-.8.2-1.59.33c.06-.54.14-1.09.24-1.63.54-.1,1.09-.23,1.62-.37C36.92,25.56,36.83,26.12,36.76,26.68Zm-1.51-4.63c-.56.13-1.13.24-1.71.32.15-.57.33-1.13.51-1.68.61-.11,1.21-.24,1.8-.4C35.63,20.87,35.43,21.46,35.25,22.05Zm-1.1,9.85c-.52-.08-1-.14-1.58-.18,0-.57,0-1.14,0-1.72s0-1.15,0-1.72c.54,0,1.06-.1,1.58-.18,0,.63-.07,1.26-.07,1.9S34.11,31.27,34.15,31.9Zm.08.93c.05.54.13,1.08.21,1.61-.53-.08-1.07-.16-1.61-.22-.08-.52-.14-1-.19-1.58C33.18,32.69,33.7,32.75,34.23,32.83Zm0-5.66c-.53.08-1,.14-1.59.19,0-.53.11-1.06.19-1.58.54-.06,1.08-.14,1.61-.22C34.36,26.09,34.28,26.63,34.23,27.17ZM33,24.83q.13-.79.33-1.59c.56-.07,1.12-.16,1.67-.27-.14.54-.26,1.08-.37,1.63C34.08,24.69,33.54,24.77,33,24.83Zm-.44-2.33c-.84.08-1.69.13-2.55.13s-1.71-.05-2.55-.13c-.14-.56-.31-1.11-.48-1.65a23.24,23.24,0,0,0,3,.21,23.24,23.24,0,0,0,3-.21Q32.78,21.66,32.55,22.5Zm-.9,9.15c-.55,0-1.1,0-1.65,0s-1.1,0-1.65,0c0-.55,0-1.1,0-1.65s0-1.1,0-1.65c.55,0,1.1,0,1.65,0s1.1,0,1.65,0c0,.55,0,1.1,0,1.65S31.62,31.1,31.65,31.65ZM30,27.48c-.58,0-1.15,0-1.72-.05,0-.53-.1-1.06-.17-1.58.62,0,1.25.07,1.89.07s1.27,0,1.9-.07c-.08.52-.13,1-.18,1.58C31.15,27.46,30.58,27.48,30,27.48Zm-1.72,5.09c.57,0,1.14,0,1.72,0s1.15,0,1.72,0c.05.53.1,1.06.18,1.58-.63,0-1.26-.07-1.9-.07s-1.27,0-1.89.07C28.18,33.63,28.24,33.1,28.28,32.57ZM30,35c.69,0,1.37,0,2,.08.09.53.2,1.05.31,1.56-.77-.07-1.56-.11-2.35-.11s-1.58,0-2.35.11c.12-.51.22-1,.31-1.56C28.64,35,29.31,35,30,35Zm2-10.08c-.67,0-1.35.08-2,.08s-1.36,0-2-.08c-.09-.53-.19-1.05-.31-1.56.77.07,1.56.11,2.35.11s1.58,0,2.35-.11C32.24,23.87,32.13,24.39,32,24.92Zm-6.26,7.91c.52-.08,1-.14,1.58-.19-.05.53-.11,1.06-.19,1.58-.54.06-1.08.14-1.61.22C25.64,33.91,25.72,33.37,25.78,32.83Zm-.22-7.27c.53.08,1.07.16,1.61.22.08.52.14,1,.19,1.58-.53-.05-1.06-.11-1.58-.19C25.72,26.63,25.64,26.09,25.56,25.56Zm.29,6.34c0-.63.07-1.26.07-1.9s0-1.27-.07-1.9c.52.08,1,.14,1.58.18,0,.57.05,1.14.05,1.72s0,1.15-.05,1.72C26.9,31.76,26.37,31.82,25.85,31.9ZM27,24.83c-.54-.06-1.09-.14-1.62-.23-.11-.55-.24-1.09-.38-1.63.55.11,1.11.2,1.67.27Q26.88,24,27,24.83ZM25.39,35.4c.53-.09,1.08-.17,1.62-.23q-.14.8-.33,1.59c-.56.07-1.12.16-1.67.27C25.15,36.49,25.28,36,25.39,35.4Zm2.06,2.1c.84-.08,1.69-.13,2.55-.13s1.71.05,2.55.13q.23.84.48,1.65a22,22,0,0,0-6.06,0C27.14,38.61,27.31,38.06,27.45,37.5ZM33,35.17c.55.06,1.09.14,1.63.23.11.55.23,1.09.37,1.63-.55-.11-1.11-.2-1.67-.27Q33.13,36,33,35.17ZM33.33,20a22.79,22.79,0,0,1-3.33.25A22.9,22.9,0,0,1,26.67,20c-.21-.6-.44-1.18-.68-1.76a20.35,20.35,0,0,0,4,.4,20.45,20.45,0,0,0,4-.4C33.77,18.79,33.54,19.37,33.33,20Zm-6.87,2.4c-.58-.08-1.15-.19-1.71-.32-.18-.59-.38-1.18-.6-1.76.59.16,1.19.29,1.8.4Q26.24,21.51,26.46,22.37Zm-3.21,11c.52-.13,1.05-.24,1.58-.33-.06.54-.14,1.09-.23,1.63-.55.1-1.09.23-1.63.37C23.08,34.44,23.17,33.88,23.25,33.32ZM23,25c.54.14,1.08.27,1.63.37.09.54.17,1.09.23,1.63-.53-.09-1.06-.2-1.58-.33C23.17,26.12,23.08,25.56,23,25Zm.39,7.34c.07-.77.11-1.56.11-2.35s0-1.58-.11-2.35c.51.12,1,.22,1.56.31,0,.67.08,1.35.08,2s0,1.37-.08,2C24.39,32.13,23.87,32.23,23.36,32.35Zm1.05-7.94c-.56-.12-1.12-.26-1.67-.42-.15-.59-.31-1.18-.5-1.75.57.18,1.16.35,1.75.5C24.15,23.29,24.29,23.84,24.41,24.41ZM19.21,39c.28-.65.53-1.32.75-2,.61-.25,1.22-.48,1.84-.68a18.32,18.32,0,0,1-.57,1.82C20.54,38.37,19.87,38.66,19.21,39Zm1.62.2c-.31.76-.66,1.49-1,2.2a22.6,22.6,0,0,0-3,1.79,22.07,22.07,0,0,0,1.79-2.95A23.33,23.33,0,0,1,20.83,39.17ZM18.21,26c.58.25,1.16.48,1.76.69A22.9,22.9,0,0,1,20.22,30,22.9,22.9,0,0,1,20,33.33c-.6.21-1.18.44-1.76.69a20.53,20.53,0,0,0,.4-4A20.53,20.53,0,0,0,18.21,26Zm3-4.09a18.32,18.32,0,0,1,.57,1.82c-.62-.2-1.23-.43-1.84-.68-.22-.68-.47-1.35-.75-2C19.87,21.34,20.54,21.63,21.23,21.89Zm-2.6-2.1a22.07,22.07,0,0,0-1.79-2.95,22.6,22.6,0,0,0,3,1.79c.37.71.72,1.44,1,2.2A23.33,23.33,0,0,1,18.63,19.79Zm3.42,5c.13.56.24,1.13.32,1.71-.57-.15-1.13-.33-1.68-.51-.11-.61-.24-1.21-.4-1.8C20.87,24.37,21.46,24.57,22.05,24.75Zm-1.76,11.1c.16-.59.29-1.19.4-1.8.55-.18,1.11-.36,1.68-.51-.08.58-.19,1.15-.32,1.71C21.46,35.43,20.87,35.63,20.29,35.85ZM20.85,33a21.61,21.61,0,0,0,.21-3,21.61,21.61,0,0,0-.21-3c.54.17,1.09.34,1.65.48A23.92,23.92,0,0,1,22.63,30a23.92,23.92,0,0,1-.13,2.55C21.94,32.69,21.39,32.86,20.85,33Zm1-11.8c-.26-.69-.54-1.36-.86-2q1,.42,2,.75c.24.6.47,1.22.67,1.84C23.09,21.63,22.49,21.44,21.89,21.23ZM20.42,18a25.32,25.32,0,0,0-1.92-3,19.47,19.47,0,0,0,2.94,1.69c.41.72.8,1.46,1.14,2.22A20.6,20.6,0,0,1,20.42,18ZM19,17.24a22.09,22.09,0,0,1-7.87-7.88A24.38,24.38,0,0,1,19,17.24ZM17.24,19a24.38,24.38,0,0,1-7.88-7.87A22.09,22.09,0,0,1,17.24,19ZM18,20.41a19.6,19.6,0,0,1,.92,2.17c-.76-.35-1.5-.73-2.21-1.14A20.77,20.77,0,0,0,15,18.5,25.59,25.59,0,0,0,18,20.41Zm1.31,3.35c.18.61.34,1.23.47,1.87-.62-.24-1.23-.49-1.83-.77a20.64,20.64,0,0,0-.67-2.06C18,23.14,18.62,23.47,19.31,23.76Zm.47,10.61c-.13.64-.29,1.26-.47,1.87-.69.29-1.36.62-2,1A20.64,20.64,0,0,0,18,35.14C18.55,34.86,19.16,34.61,19.78,34.37Zm-.86,3.05A19.6,19.6,0,0,1,18,39.59a25.59,25.59,0,0,0-3,1.91,20.77,20.77,0,0,0,1.69-2.94C17.42,38.15,18.16,37.77,18.92,37.42ZM17.24,41a22.09,22.09,0,0,1-7.88,7.87A24.38,24.38,0,0,1,17.24,41ZM19,42.76a24.38,24.38,0,0,1-7.87,7.88A22.09,22.09,0,0,1,19,42.76ZM20.42,42a20.6,20.6,0,0,1,2.16-.92c-.34.76-.73,1.5-1.14,2.22A19.47,19.47,0,0,0,18.5,45,25.32,25.32,0,0,0,20.42,42ZM21,40.79c.32-.66.6-1.33.86-2,.6-.21,1.2-.4,1.82-.57-.2.62-.43,1.24-.67,1.84Q22,40.37,21,40.79Zm1.21-3c.19-.57.35-1.16.5-1.75.55-.16,1.11-.3,1.67-.42-.12.57-.26,1.12-.42,1.67C23.4,37.41,22.81,37.58,22.24,37.76Zm2.51.19c.56-.13,1.13-.24,1.71-.32q-.23.85-.51,1.68c-.61.11-1.21.24-1.8.4C24.37,39.13,24.57,38.54,24.75,38ZM26.67,40a22.3,22.3,0,0,1,6.66,0c.21.6.44,1.19.69,1.76a20.35,20.35,0,0,0-8,0C26.23,41.22,26.46,40.63,26.67,40Zm6.87-2.4c.58.08,1.15.19,1.71.32.18.59.38,1.18.6,1.76-.59-.16-1.19-.29-1.8-.4C33.87,38.76,33.69,38.2,33.54,37.63Zm2.05-2c.57.12,1.12.26,1.67.42.15.59.32,1.18.51,1.75-.58-.18-1.17-.35-1.76-.5C35.86,36.71,35.71,36.16,35.59,35.59Zm2.52,3.18c.26.69.55,1.36.86,2-.65-.28-1.32-.53-2-.75-.25-.6-.47-1.22-.68-1.84C36.91,38.37,37.52,38.56,38.11,38.77ZM39.59,42a26.59,26.59,0,0,0,1.91,3,18.9,18.9,0,0,0-2.93-1.69c-.42-.72-.8-1.46-1.15-2.22A21.71,21.71,0,0,1,39.59,42Zm1.42.76a22.09,22.09,0,0,1,7.87,7.88A24.38,24.38,0,0,1,41,42.76ZM42.77,41a24.45,24.45,0,0,1,7.87,7.87A22,22,0,0,1,42.77,41ZM42,39.59c-.34-.71-.65-1.43-.92-2.17q1.14.53,2.22,1.14A19.84,19.84,0,0,0,45,41.5,26.59,26.59,0,0,0,42,39.59Zm-1.31-3.35c-.18-.61-.34-1.23-.47-1.87.62.24,1.23.49,1.83.77a20.64,20.64,0,0,0,.67,2.06C42.06,36.86,41.38,36.53,40.69,36.24Zm-.47-10.61c.13-.64.29-1.26.47-1.87.69-.29,1.37-.62,2-1a20.64,20.64,0,0,0-.67,2.06C41.45,25.14,40.84,25.39,40.22,25.63Zm.86-3.05c.27-.74.58-1.46.92-2.17a26.59,26.59,0,0,0,3-1.91,19.84,19.84,0,0,0-1.69,2.94Q42.22,22.06,41.08,22.58ZM42.77,19a22,22,0,0,1,7.87-7.87A24.45,24.45,0,0,1,42.77,19Zm5.72-7.47a25.3,25.3,0,0,0,1.79-3,21.85,21.85,0,0,1,2.19-1,23.11,23.11,0,0,1-1,2.2A22.07,22.07,0,0,0,48.49,11.52Zm1.16-3.58a26.59,26.59,0,0,0-3,1.91,18.9,18.9,0,0,0,1.69-2.93c.72-.42,1.46-.8,2.22-1.15A21.71,21.71,0,0,1,49.65,7.94ZM39.33,15.47a26.53,26.53,0,0,1,7.79-7.79A19.72,19.72,0,0,1,39.33,15.47Zm-1.54.75a21.63,21.63,0,0,1-2.21.81c.37-.74.76-1.47,1.19-2.17a18.26,18.26,0,0,0,3-1.56A27.47,27.47,0,0,0,37.79,16.22Zm-.59,1.06c-.34.66-.67,1.34-1,2-.61.18-1.23.34-1.87.47.24-.62.5-1.23.77-1.83A20.64,20.64,0,0,0,37.2,17.28Zm-2.79.06a19.42,19.42,0,0,1-4.41.51,19.42,19.42,0,0,1-4.41-.51c-.31-.68-.65-1.34-1-2A17.78,17.78,0,0,0,30,16.2a17.73,17.73,0,0,0,5.43-.85C35.07,16,34.73,16.66,34.41,17.34ZM24.86,18c.28.6.53,1.21.77,1.83-.63-.13-1.26-.29-1.87-.47-.29-.69-.61-1.37-1-2A20.64,20.64,0,0,0,24.86,18Zm-2.65-1.73a27.38,27.38,0,0,0-1.94-2.92,17.77,17.77,0,0,0,3,1.56c.43.7.83,1.43,1.2,2.17A21,21,0,0,1,22.21,16.22Zm-1.53-.75a19.59,19.59,0,0,1-7.79-7.79A26.77,26.77,0,0,1,20.68,15.47ZM13.34,9.85a26.59,26.59,0,0,0-3-1.91C10,7.23,9.7,6.51,9.43,5.77c.76.35,1.5.73,2.22,1.15A19.74,19.74,0,0,0,13.34,9.85ZM9.73,8.56a22.83,22.83,0,0,0,1.79,3,22.83,22.83,0,0,0-3-1.79c-.38-.72-.72-1.45-1-2.2A23.11,23.11,0,0,1,9.73,8.56Zm5.74,12.12a26.9,26.9,0,0,1-7.79-7.79A19.59,19.59,0,0,1,15.47,20.68Zm.75,1.53A21.63,21.63,0,0,1,17,24.42c-.74-.37-1.46-.76-2.17-1.19a18.26,18.26,0,0,0-1.56-3A27.47,27.47,0,0,0,16.22,22.21Zm1.12,3.38A19.42,19.42,0,0,1,17.85,30a19.42,19.42,0,0,1-.51,4.41c-.68.32-1.34.66-2,1A17.73,17.73,0,0,0,16.2,30a17.73,17.73,0,0,0-.85-5.43C16,24.93,16.66,25.27,17.34,25.59Zm-.31,10a21.63,21.63,0,0,1-.81,2.21,27.47,27.47,0,0,0-2.92,2,18.26,18.26,0,0,0,1.56-3C15.57,36.34,16.29,36,17,35.58Zm-1.56,3.74a19.68,19.68,0,0,1-7.79,7.8A26.81,26.81,0,0,1,15.47,39.32Zm-6.91,11a23.94,23.94,0,0,0,3-1.78,22.07,22.07,0,0,0-1.79,2.95,23.11,23.11,0,0,1-2.2,1C7.84,51.72,8.18,51,8.56,50.27Zm1.79,1.79a26.59,26.59,0,0,0,3-1.91,19.74,19.74,0,0,0-1.69,2.93c-.72.42-1.46.8-2.22,1.15C9.7,53.49,10,52.77,10.35,52.06Zm10.33-7.53a26.77,26.77,0,0,1-7.79,7.79A19.59,19.59,0,0,1,20.68,44.53Zm1.53-.75A21,21,0,0,1,24.43,43c-.37.74-.77,1.47-1.2,2.17a18.26,18.26,0,0,0-3,1.56A27.47,27.47,0,0,0,22.21,43.78Zm.59-1.06c.35-.66.67-1.34,1-2,.61-.18,1.24-.34,1.87-.47-.24.62-.49,1.23-.77,1.83A20.64,20.64,0,0,0,22.8,42.72Zm2.79-.06a19.32,19.32,0,0,1,8.82,0c.32.68.66,1.34,1,2a17.77,17.77,0,0,0-10.86,0C24.94,44,25.28,43.34,25.59,42.66Zm9.55-.61c-.27-.6-.53-1.21-.77-1.83.64.13,1.26.29,1.87.47.29.69.62,1.37,1,2A20.64,20.64,0,0,0,35.14,42.05Zm2.65,1.73a27.47,27.47,0,0,0,2,2.92,17.86,17.86,0,0,0-3-1.56c-.43-.7-.82-1.43-1.19-2.17A21.63,21.63,0,0,1,37.79,43.78Zm1.54.75a19.72,19.72,0,0,1,7.79,7.79A26.53,26.53,0,0,1,39.33,44.53Zm7.33,5.62a26.59,26.59,0,0,0,3,1.91,21.71,21.71,0,0,1,.92,2.17c-.76-.35-1.5-.73-2.22-1.15A18.9,18.9,0,0,0,46.66,50.15Zm3.62,1.29a24.38,24.38,0,0,0-1.79-2.95,23.1,23.1,0,0,0,2.95,1.78,23.11,23.11,0,0,1,1,2.2A21.85,21.85,0,0,1,50.28,51.44ZM44.53,39.32a26.84,26.84,0,0,1,7.8,7.8A19.64,19.64,0,0,1,44.53,39.32Zm-.75-1.53A21.63,21.63,0,0,1,43,35.58c.74.37,1.47.76,2.17,1.19a18.26,18.26,0,0,0,1.56,3A26.49,26.49,0,0,0,43.78,37.79Zm-1.12-3.38a19.7,19.7,0,0,1,0-8.82c.68-.32,1.34-.66,2-1a17.77,17.77,0,0,0,0,10.86C44,35.07,43.34,34.73,42.66,34.41Zm.31-10a21.63,21.63,0,0,1,.81-2.21,26.49,26.49,0,0,0,2.92-1.95,18.26,18.26,0,0,0-1.56,3C44.44,23.66,43.71,24.05,43,24.42Zm1.56-3.74a19.64,19.64,0,0,1,7.8-7.8A26.84,26.84,0,0,1,44.53,20.68Zm5.62-7.34a26.59,26.59,0,0,0,1.91-3c.71-.34,1.43-.65,2.17-.92q-.52,1.14-1.14,2.22A19.84,19.84,0,0,0,50.15,13.34Zm2.53-4.2c.31-.66.6-1.33.86-2,.59-.21,1.2-.4,1.82-.57-.2.63-.43,1.24-.67,1.84Q53.66,8.72,52.68,9.14ZM52.34,2.4c.55-.18,1.11-.36,1.68-.51-.09.58-.19,1.15-.32,1.71-.59.18-1.18.38-1.76.6C52.1,3.61,52.23,3,52.34,2.4Zm1.11,2.24c-.17.62-.36,1.23-.57,1.82-.69.26-1.36.55-2,.86.28-.65.53-1.32.75-2C52.21,5.07,52.83,4.85,53.45,4.64ZM49.6,3.49c.6-.27,1.21-.53,1.83-.77C51.3,3.36,51.14,4,51,4.59c-.69.29-1.37.62-2,1A20.64,20.64,0,0,0,49.6,3.49ZM46.51,5.12c.7-.43,1.43-.82,2.17-1.19a20.79,20.79,0,0,1-.81,2.21,27.47,27.47,0,0,0-2.92,2A17.86,17.86,0,0,0,46.51,5.12Zm-1.18.76a17.23,17.23,0,0,1-7.8,7.8A29.23,29.23,0,0,1,45.33,5.88ZM30,13.92a15.46,15.46,0,0,0,7.73-2.08c-.61.8-1.18,1.64-1.71,2.5a17.15,17.15,0,0,1-6,1.1,17.19,17.19,0,0,1-6-1.1c-.53-.86-1.1-1.7-1.71-2.5A15.49,15.49,0,0,0,30,13.92Zm-7.53-.24a17.23,17.23,0,0,1-7.8-7.8A29.23,29.23,0,0,1,22.47,13.68Zm-9-8.56a17.91,17.91,0,0,0,1.57,3,28.52,28.52,0,0,0-2.92-1.95,18.86,18.86,0,0,1-.82-2.21C12.06,4.3,12.79,4.69,13.49,5.12ZM10.41,3.49a18.29,18.29,0,0,0,.66,2.06c-.66-.34-1.33-.67-2-1a19,19,0,0,1-.48-1.87C9.2,3,9.8,3.22,10.41,3.49Zm-2,1.83c.22.68.47,1.35.75,2-.65-.31-1.33-.6-2-.86-.21-.59-.4-1.2-.57-1.82C7.18,4.85,7.79,5.07,8.39,5.32ZM7.66,2.4c.11.61.24,1.21.4,1.8C7.48,4,6.9,3.78,6.3,3.6,6.18,3,6.07,2.47,6,1.89,6.55,2,7.11,2.22,7.66,2.4ZM6.12,6.11c-.58-.18-1.16-.35-1.76-.5-.15-.55-.29-1.1-.42-1.67.57.12,1.12.27,1.67.42C5.76,5,5.93,5.54,6.12,6.11Zm-1-4.44c.07.56.16,1.12.27,1.67C4.85,3.2,4.31,3.08,3.76,3c-.1-.54-.18-1.08-.24-1.63C4.06,1.43,4.58,1.54,5.11,1.67ZM1,1c.53,0,1.06.1,1.58.18,0,.54.13,1.08.22,1.62-.54-.09-1.08-.17-1.62-.22C1.1,2.05,1,1.53,1,1Zm.67,4.11q-.18-.8-.33-1.59c.55.06,1.09.14,1.63.24.11.54.23,1.09.38,1.62Q2.51,5.22,1.67,5.11ZM1.89,6c.58.09,1.15.19,1.72.32.18.6.38,1.18.59,1.76C3.61,7.9,3,7.77,2.41,7.66,2.22,7.11,2.05,6.55,1.89,6Zm1.6,4.42C3.22,9.8,3,9.19,2.73,8.57,3.36,8.7,4,8.86,4.59,9c.29.7.62,1.37,1,2A19.83,19.83,0,0,0,3.49,10.4Zm.44.92a20,20,0,0,1,2.21.81,26.49,26.49,0,0,0,2,2.92,17.48,17.48,0,0,0-3-1.56C4.69,12.79,4.3,12.06,3.93,11.32Zm1.95,3.35a17.23,17.23,0,0,1,7.8,7.8A29.53,29.53,0,0,1,5.88,14.67Zm8,15.33a15.38,15.38,0,0,0-2.08-7.73c.81.61,1.64,1.18,2.5,1.71a16.93,16.93,0,0,1,1.1,6,16.93,16.93,0,0,1-1.1,6c-.86.53-1.69,1.1-2.5,1.71A15.38,15.38,0,0,0,13.92,30Zm-.24,7.53a17.23,17.23,0,0,1-7.8,7.8A29.53,29.53,0,0,1,13.68,37.53Zm-8.56,9a17.52,17.52,0,0,0,3-1.57,27.6,27.6,0,0,0-1.95,2.93,20,20,0,0,1-2.21.81C4.3,47.94,4.69,47.21,5.12,46.51ZM3.49,49.6a19.83,19.83,0,0,0,2.06-.67c-.34.66-.67,1.33-1,2-.61.18-1.23.34-1.86.47C3,50.81,3.22,50.2,3.49,49.6Zm-.91,9.22c-.52.08-1,.14-1.58.19,0-.54.1-1.06.18-1.59.54-.05,1.08-.13,1.62-.22C2.71,57.74,2.63,58.28,2.58,58.82ZM3,56.24c-.54.1-1.08.18-1.63.24q.15-.79.33-1.59.84-.11,1.68-.27C3.2,55.15,3.08,55.7,3,56.24ZM1.89,54c.16-.57.33-1.13.52-1.68.6-.11,1.2-.24,1.79-.4-.21.58-.41,1.16-.59,1.76C3,53.83,2.47,53.93,1.89,54Zm3.22,4.31c-.53.13-1.05.24-1.59.33.06-.55.14-1.09.24-1.63.55-.11,1.09-.23,1.62-.37C5.27,57.21,5.18,57.77,5.11,58.33Zm.5-2.69c-.55.15-1.1.3-1.67.42.13-.57.27-1.12.42-1.67.6-.15,1.18-.32,1.76-.5C5.93,54.46,5.76,55.05,5.61,55.64Zm2.05,2c-.55.18-1.11.36-1.68.51.09-.58.2-1.15.32-1.72.6-.18,1.18-.37,1.76-.59C7.9,56.39,7.77,57,7.66,57.6ZM6.55,55.36c.17-.62.36-1.23.57-1.82.69-.26,1.37-.55,2-.86-.28.65-.53,1.32-.75,2C7.79,54.93,7.18,55.15,6.55,55.36Zm3.86,1.15c-.61.27-1.21.53-1.84.77a19,19,0,0,1,.48-1.87c.69-.29,1.36-.62,2-1A18.29,18.29,0,0,0,10.41,56.51Zm3.08-1.63c-.7.43-1.43.82-2.17,1.19a18.86,18.86,0,0,1,.82-2.21,28.52,28.52,0,0,0,2.92-2A17.91,17.91,0,0,0,13.49,54.88Zm1.18-.76a17.23,17.23,0,0,1,7.8-7.8A29.23,29.23,0,0,1,14.67,54.12Zm15.33-8a15.49,15.49,0,0,0-7.73,2.08c.61-.8,1.18-1.64,1.71-2.5a17,17,0,0,1,12,0c.53.86,1.1,1.7,1.71,2.5A15.46,15.46,0,0,0,30,46.08Zm7.53.24a17.23,17.23,0,0,1,7.8,7.8A29.23,29.23,0,0,1,37.53,46.32Zm9,8.56a17.86,17.86,0,0,0-1.56-3,27.47,27.47,0,0,0,2.92,2,20.79,20.79,0,0,1,.81,2.21C47.94,55.7,47.21,55.31,46.51,54.88Zm3.09,1.63a20.64,20.64,0,0,0-.67-2.06c.66.34,1.34.67,2,1,.18.61.34,1.23.47,1.87C50.81,57,50.2,56.78,49.6,56.51Zm2-1.83c-.22-.68-.47-1.35-.75-2,.66.31,1.33.6,2,.86.21.59.4,1.2.57,1.82C52.83,55.15,52.21,54.93,51.61,54.68Zm.73,2.92c-.11-.61-.24-1.21-.4-1.8.58.22,1.17.41,1.76.59.13.57.23,1.14.32,1.72C53.45,58,52.89,57.78,52.34,57.6Zm1.55-3.71c.57.18,1.16.35,1.75.5.16.55.3,1.1.42,1.67-.57-.12-1.12-.27-1.67-.42C54.24,55.05,54.07,54.46,53.89,53.89Zm1,4.44c-.07-.56-.16-1.12-.27-1.67.54.14,1.08.26,1.63.37.09.54.17,1.08.23,1.63Q55.69,58.53,54.89,58.33ZM59,59c-.53,0-1.06-.11-1.59-.19-.05-.54-.13-1.08-.21-1.62.53.09,1.07.17,1.61.22C58.9,58,59,58.47,59,59Zm-.68-4.12q.2.8.33,1.59c-.55-.06-1.09-.14-1.63-.24-.11-.54-.23-1.09-.37-1.62C57.21,54.73,57.77,54.82,58.33,54.89ZM58.11,54c-.58-.09-1.15-.19-1.71-.32-.18-.6-.38-1.18-.6-1.76.59.16,1.19.29,1.8.4C57.78,52.89,58,53.45,58.11,54Zm-1.6-4.42c.27.6.53,1.21.77,1.83-.64-.13-1.26-.29-1.87-.47-.29-.69-.62-1.37-1-2A20.64,20.64,0,0,0,56.51,49.6Zm-.44-.92a21.63,21.63,0,0,1-2.21-.81,27.6,27.6,0,0,0-2-2.93,18.31,18.31,0,0,0,3,1.57C55.31,47.21,55.7,47.94,56.07,48.68Zm-2-3.35a17.23,17.23,0,0,1-7.8-7.8A29.23,29.23,0,0,1,54.12,45.33ZM46.08,30a15.49,15.49,0,0,0,2.08,7.73A29,29,0,0,0,45.66,36a17.17,17.17,0,0,1,0-12,29,29,0,0,0,2.5-1.71A15.49,15.49,0,0,0,46.08,30Zm.24-7.53a17.23,17.23,0,0,1,7.8-7.8A29.23,29.23,0,0,1,46.32,22.47Zm8.56-9a18.26,18.26,0,0,0-3,1.56,26.49,26.49,0,0,0,2-2.92,21.63,21.63,0,0,1,2.21-.81C55.7,12.06,55.31,12.79,54.88,13.49Zm1.63-3.09a20.64,20.64,0,0,0-2.06.67c.34-.66.67-1.33,1-2,.61-.18,1.23-.34,1.87-.47C57,9.19,56.78,9.8,56.51,10.4ZM57.6,7.66c-.61.11-1.21.24-1.8.4.22-.58.42-1.16.6-1.76.56-.13,1.13-.23,1.71-.32C58,6.55,57.78,7.11,57.6,7.66Zm.73-2.55c-.56.07-1.12.16-1.67.27.14-.53.27-1.08.37-1.62.54-.1,1.08-.18,1.63-.24Q58.53,4.31,58.33,5.11Zm.49-2.53c-.54,0-1.08.13-1.61.22.08-.54.16-1.08.21-1.62Q58.22,1.06,59,1C59,1.53,58.9,2.05,58.82,2.58Z"/><path class="cls-2" d="M30,1.62A3.26,3.26,0,0,0,32.8,0h-.64A2.73,2.73,0,0,1,30,1.08,2.73,2.73,0,0,1,27.84,0H27.2A3.27,3.27,0,0,0,30,1.62Z"/><path class="cls-2" d="M30,4.2A5.85,5.85,0,0,0,35.6,0H35a5.31,5.31,0,0,1-5,3.66A5.31,5.31,0,0,1,25,0H24.4A5.85,5.85,0,0,0,30,4.2Z"/><path class="cls-2" d="M30,48.6A13.07,13.07,0,0,0,17.06,60h.7a12.35,12.35,0,0,1,24.48,0h.7A13.07,13.07,0,0,0,30,48.6Z"/><path class="cls-2" d="M30,6.48A8.15,8.15,0,0,0,38,0h-.63A7.54,7.54,0,0,1,30,5.87,7.52,7.52,0,0,1,22.68,0h-.63A8.14,8.14,0,0,0,30,6.48Z"/><path class="cls-2" d="M30,11.4A13.07,13.07,0,0,0,42.94,0h-.7A12.37,12.37,0,0,1,30,10.72,12.37,12.37,0,0,1,17.76,0h-.7A13.07,13.07,0,0,0,30,11.4Z"/><path class="cls-2" d="M58.38,30A3.26,3.26,0,0,0,60,32.8v-.64a2.7,2.7,0,0,1,0-4.32V27.2A3.26,3.26,0,0,0,58.38,30Z"/><path class="cls-2" d="M55.81,30A5.84,5.84,0,0,0,60,35.6V35A5.3,5.3,0,0,1,60,25V24.4A5.84,5.84,0,0,0,55.81,30Z"/><path class="cls-2" d="M30,51.25A10.42,10.42,0,0,0,19.74,60h.62a9.78,9.78,0,0,1,19.28,0h.62A10.4,10.4,0,0,0,30,51.25Z"/><path class="cls-2" d="M30,8.75A10.41,10.41,0,0,0,40.26,0h-.62A9.79,9.79,0,0,1,30,8.14,9.8,9.8,0,0,1,20.36,0h-.62A10.42,10.42,0,0,0,30,8.75Z"/><path class="cls-2" d="M53.52,30A8.16,8.16,0,0,0,60,38v-.63a7.51,7.51,0,0,1,0-14.66V22A8.15,8.15,0,0,0,53.52,30Z"/><path class="cls-2" d="M30,55.8A5.85,5.85,0,0,0,24.4,60H25a5.31,5.31,0,0,1,10.09,0h.55A5.85,5.85,0,0,0,30,55.8Z"/><path class="cls-2" d="M30,58.38A3.26,3.26,0,0,0,27.2,60h.64a2.7,2.7,0,0,1,4.32,0h.64A3.26,3.26,0,0,0,30,58.38Z"/><path class="cls-2" d="M48.6,30A13.07,13.07,0,0,0,60,42.94v-.7a12.35,12.35,0,0,1,0-24.48v-.7A13.07,13.07,0,0,0,48.6,30Z"/><path class="cls-2" d="M51.25,30A10.42,10.42,0,0,0,60,40.26v-.62a9.78,9.78,0,0,1,0-19.28v-.62A10.42,10.42,0,0,0,51.25,30Z"/><path class="cls-2" d="M30,53.52A8.16,8.16,0,0,0,22,60h.64a7.51,7.51,0,0,1,14.65,0H38A8.15,8.15,0,0,0,30,53.52Z"/></svg>