<svg xmlns="http://www.w3.org/2000/svg" xml:space="preserve" width="645.5mm" height="81.5mm" style="shape-rendering:geometricPrecision;text-rendering:geometricPrecision;image-rendering:optimizeQuality;fill-rule:evenodd;clip-rule:evenodd" viewBox="0 0 64550 8150"><defs><style>.fil0{fill:#3d3d3d}.fil1{fill:#e84737;fill-rule:nonzero}</style></defs><g id="Слой_x0020_1"><g id="_1864422870048"><path class="fil0" d="M10991 84v1681h-237v-665c-178 69-342 103-493 103-205 0-363-50-476-149s-170-241-170-425V84h236v519c0 125 38 221 114 288s184 101 323 101c155 0 310-35 466-106V84h237zm1744 1472v209h-1220V84h1186v209h-946v516h843v204h-843v543h980zM14486 84v1681h-236V293h-744l-17 492c-8 232-27 420-56 565-30 144-77 252-141 325s-150 109-259 109c-50 0-100-6-152-19l17-214c26 7 51 10 77 10 69 0 124-28 166-83 41-55 73-138 93-248 21-111 35-257 41-438l27-708h1184zm1755 0v1681h-235v-490h-464c-29 0-50-1-65-2l-336 492h-254l372-533c-120-40-212-107-276-201-64-93-96-207-96-342 0-190 61-339 183-445 123-107 288-160 496-160h675zm-1112 603c0 125 37 220 110 287 72 66 180 99 323 99h444V293h-430c-144 0-255 34-331 101-77 67-116 165-116 293zm1636-603h1268v204h-1031v480h524c200 0 352 42 456 125 104 84 156 204 156 361 0 164-56 291-169 379s-274 132-484 132h-720V84zm711 1491c137 0 242-26 314-79s108-130 108-233c0-203-141-305-422-305h-474v617h474zM18520 84h238v1297l994-1297h221v1681h-235V471l-997 1294h-221V84zm3422 0v1681h-240v-749h-965v749h-240V84h240v723h965V84h240zm1275 1700c-168 0-319-37-455-111-135-75-241-177-318-308-77-130-115-277-115-440 0-164 38-311 115-441 77-131 184-233 320-308 136-74 288-111 456-111 131 0 251 22 360 66s202 109 279 196l-156 151c-127-133-285-199-473-199-125 0-238 28-339 84s-180 133-237 231c-56 99-85 209-85 331 0 121 29 231 85 330 57 98 136 175 237 231s214 85 339 85c187 0 345-68 473-202l156 151c-77 87-170 152-280 197s-230 67-362 67zm1559-759h-351v740h-235V84h235v730h356l528-730h257l-600 814 629 867h-274l-545-740zm2135 320h-893l-185 420h-248l762-1681h237l764 1681h-252l-185-420zm-84-192-363-824-362 824h725zM28791 84v1681h-235v-490h-463c-29 0-51-1-65-2l-336 492h-255l372-533c-120-40-212-107-276-201-64-93-96-207-96-342 0-190 61-339 184-445 122-107 287-160 496-160h674zm-1112 603c0 125 37 220 110 287 73 66 180 99 323 99h444V293h-430c-144 0-254 34-331 101s-116 165-116 293zm3038 1097c-169 0-322-37-458-111-136-75-243-178-321-309s-116-278-116-439c0-162 38-309 116-440s185-234 321-309c136-74 289-111 458-111 168 0 321 37 457 111 136 75 242 177 319 308 77 130 115 277 115 441 0 163-38 310-115 440-77 131-183 233-319 308-136 74-289 111-457 111zm0-213c124 0 235-29 333-85s176-133 233-231c57-99 85-209 85-330 0-122-28-232-85-331-57-98-135-175-233-231s-209-84-333-84c-123 0-235 28-335 84s-178 133-235 231c-57 99-85 209-85 331 0 121 28 231 85 330 57 98 135 175 235 231s212 85 335 85zM31997 84h1268v204h-1030v480h524c200 0 352 42 456 125 104 84 156 204 156 361 0 164-56 291-169 379s-274 132-484 132h-721V84zm711 1491c138 0 243-26 315-79s108-130 108-233c0-203-141-305-423-305h-473v617h473zM35083 84v1681h-235V293h-744l-17 492c-8 232-27 420-57 565-29 144-76 252-140 325s-151 109-260 109c-49 0-100-6-151-19l17-214c26 7 51 10 77 10 69 0 124-28 165-83 42-55 73-138 94-248 21-111 35-257 41-438l26-708h1184zm1617 1261h-894l-185 420h-247l761-1681h238l764 1681h-253l-184-420zm-85-192-362-824-363 824h725zm1540 631c-168 0-320-37-455-111-136-75-242-177-318-308-77-130-116-277-116-440 0-164 39-311 116-441 76-131 183-233 319-308 136-74 288-111 456-111 132 0 252 22 360 66 109 44 202 109 279 196l-156 151c-127-133-284-199-473-199-125 0-238 28-339 84s-179 133-236 231c-57 99-86 209-86 331 0 121 29 231 86 330 57 98 135 175 236 231s214 85 339 85c187 0 345-68 473-202l156 151c-77 87-170 152-280 197-109 45-230 67-361 67zm2108-1491h-576v1472h-235V293h-574V84h1385v209zm1739-209v1681h-240v-749h-966v749h-240V84h240v723h966V84h240zm1616 1261h-893l-185 420h-247l761-1681h238l763 1681h-252l-185-420zm-84-192-362-824-363 824h725zM45499 84v1681h-236v-490h-463c-29 0-51-1-65-2l-336 492h-255l372-533c-120-40-212-107-276-201-64-93-96-207-96-342 0-190 61-339 184-445 122-107 288-160 496-160h675zm-1112 603c0 125 36 220 109 287 73 66 181 99 323 99h444V293h-430c-144 0-254 34-331 101s-115 165-115 293zM11124 3396l-747 1386c-60 110-129 193-209 247s-168 82-262 82c-74 0-149-17-226-51l63-192c59 21 112 31 158 31 106 0 193-56 262-168l38-60-677-1275h257l545 1066 560-1066h238zm1693 0v1681h-241v-749h-965v749h-240V3396h240v723h965v-723h241zm523 0h238v1297l994-1297h221v1681h-235V3783l-997 1294h-221V3396zm3024 809c113 27 199 76 258 146 58 69 87 158 87 267 0 146-53 259-159 339-107 80-262 120-465 120h-768V3396h722c185 0 328 37 431 112 104 74 155 181 155 320 0 92-22 169-68 233s-110 112-193 144zm-810-69h469c116 0 206-24 267-70 62-46 93-114 93-204s-31-158-94-205c-62-48-151-71-266-71h-469v550zm526 751c258 0 387-96 387-288 0-96-33-167-97-212-65-46-162-69-290-69h-526v569h526zm2250-19v209h-1220V3396h1187v209h-946v516h843v204h-843v543h979zm1033-1472c218 0 389 52 514 156s187 247 187 430c0 182-62 326-187 430s-296 156-514 156h-415v509h-241V3396h656zm-7 963c152 0 268-32 348-97s120-158 120-280-40-215-120-280-196-97-348-97h-408v754h408zm1818 737c-168 0-320-37-455-111-136-75-242-177-318-308-77-130-116-277-116-441 0-163 39-310 116-440 76-131 183-233 319-308 136-74 288-111 456-111 131 0 252 22 360 66 109 44 202 109 279 196l-156 151c-127-133-284-200-473-200-125 0-238 29-339 85s-180 133-236 231c-57 99-86 209-86 330 0 122 29 232 86 331 56 98 135 175 236 231s214 85 339 85c187 0 345-68 473-202l156 151c-77 87-170 152-280 197-109 45-230 67-361 67zm2024-439h-893l-185 420h-247l761-1681h238l763 1681h-252l-185-420zm-84-192-362-824-363 824h725zm2193-1069v1681h-236V3605h-744l-17 492c-8 232-27 420-56 565-30 144-77 252-141 325s-150 109-259 109c-50 0-100-6-151-19l16-214c26 7 52 10 77 10 69 0 124-28 166-83s73-138 94-249c20-110 34-256 40-437l27-708h1184zm1261 586c200 0 353 45 459 134 107 90 160 222 160 397 0 184-57 324-172 420-114 96-278 144-491 144h-694V3396h238v586h500zm-53 905c139 0 246-31 320-95 75-63 112-154 112-275 0-230-144-345-432-345h-447v715h447zm2473-1491v1681h-240v-749h-965v749h-240V3396h240v723h965v-723h240zm1617 1261h-894l-185 420h-247l761-1681h238l764 1681h-253l-184-420zm-85-192-362-824-363 824h725zm1965-1069v1681h-235v-490h-464c-29 0-50-1-65-2l-336 492h-255l373-533c-120-40-212-107-277-201-64-93-96-207-96-342 0-190 62-339 184-445 123-107 288-160 496-160h675zm-1112 603c0 125 36 220 109 287 73 66 181 99 323 99h445v-780h-430c-144 0-255 34-332 101s-115 165-115 293zm3727-603v1681h-240v-749h-965v749h-241V3396h241v723h965v-723h240zm1616 1261h-893l-185 420h-247l761-1681h238l763 1681h-252l-185-420zm-84-192-362-824-363 824h725zm2109-1069-747 1386c-59 110-129 193-209 247s-167 82-262 82c-73 0-149-17-226-51l63-192c59 21 112 31 158 31 106 0 193-56 262-168l39-60-678-1275h257l545 1066 560-1066h238zm1527 0v1681h-238v-665c-177 69-341 103-492 103-205 0-364-50-477-149-112-99-169-241-169-425v-545h235v519c0 125 38 221 115 288 76 67 183 101 323 101 155 0 310-35 465-106v-802h238zm1969 0v1681h-240v-749h-965v749h-240V3396h240v723h965v-723h240zm1617 1261h-894l-185 420h-247l761-1681h238l764 1681h-253l-184-420zm-84-192-363-824-363 824h726zm1964-1069v1681h-235v-490h-464c-29 0-50-1-65-2l-336 492h-254l372-533c-120-40-212-107-276-201-64-93-96-207-96-342 0-190 61-339 183-445 123-107 288-160 496-160h675zm-1112 603c0 125 36 220 109 287 73 66 181 99 323 99h445v-780h-430c-144 0-255 34-332 101s-115 165-115 293zm2281-603h1268v204h-1030v480h524c200 0 352 42 456 125 104 84 156 204 156 361 0 164-56 291-169 379s-274 132-484 132h-721V3396zm711 1491c138 0 243-26 315-79s108-130 108-233c0-203-141-305-423-305h-473v617h473zm1045-1491h238v1297l994-1297h221v1681h-235V3783l-997 1294h-221V3396zm1976 0h1268v204h-1030v480h524c200 0 352 42 456 125 104 84 156 204 156 361 0 164-56 291-169 379s-274 132-484 132h-721V3396zm711 1491c138 0 243-26 315-79s108-130 108-233c0-203-141-305-423-305h-473v617h473zm2375-1491v1681h-235V3605h-744l-17 492c-8 232-27 420-57 565-29 144-76 252-140 325s-151 109-260 109c-49 0-100-6-151-19l17-214c26 7 51 10 77 10 69 0 124-28 166-83 41-55 72-138 93-249 21-110 35-256 41-437l26-708h1184zm524 0h238v1297l994-1297h221v1681h-236V3783l-996 1294h-221V3396zm2733 1700c-170 0-323-37-459-111-136-75-243-178-321-309-77-131-116-278-116-440 0-161 39-308 116-439 78-131 185-234 321-309 136-74 289-111 459-111 168 0 320 37 456 111 136 75 243 177 319 308 77 130 116 277 116 440 0 164-39 311-116 441-76 131-183 233-319 308-136 74-288 111-456 111zm0-213c123 0 234-29 332-85 99-56 176-133 233-231 57-99 86-209 86-331 0-121-29-231-86-330-57-98-134-175-233-231-98-56-209-85-332-85s-235 29-335 85-179 133-236 231c-56 99-85 209-85 330 0 122 29 232 85 331 57 98 136 175 236 231s212 85 335 85zm2411-1278h-576v1472h-236V3605h-574v-209h1386v209zm1513 1263v209h-1220V3396h1186v209h-946v516h843v204h-843v543h980zm963-531h-351v740h-235V3396h235v730h356l528-730h257l-600 814 629 867h-274l-545-740zm2135 320h-894l-185 420h-247l761-1681h238l764 1681h-252l-185-420zm-84-192-363-824-363 824h726zM9588 6860h107v854l660-854h99v1031h-107v-853l-661 853h-98V6860zm2076 0v1031h-107v-476h-646v476h-109V6860h109v460h646v-460h107zm1452 514c0 137-49 244-145 322-97 78-233 120-406 125v106h-102v-106c-174-6-309-48-406-126-97-77-145-184-145-321s48-244 145-321c97-78 232-120 406-125v-104h102v104c173 5 308 47 405 126 97 78 146 184 146 320zm-551 360c142-6 252-40 330-102 77-62 116-148 116-258s-39-196-117-258-188-95-329-100v718zm-549-360c0 110 39 196 118 257 78 62 187 96 329 103v-718c-144 6-254 39-331 101-77 61-116 147-116 257zm1800 526c-102 0-195-23-278-68-83-46-148-109-195-188-46-80-70-169-70-268 0-100 24-189 70-269 47-79 112-142 195-188 83-45 176-68 278-68s194 22 276 68c82 45 147 107 194 188 47 80 71 169 71 269 0 99-24 188-71 268-47 81-112 143-194 188-82 46-174 68-276 68zm0-97c81 0 155-19 221-55 66-37 117-88 155-154 37-65 56-138 56-218 0-81-19-154-56-219-38-66-89-117-155-154-66-36-140-55-221-55-82 0-156 19-222 55-66 37-118 88-156 154-38 65-57 138-57 219 0 80 19 153 57 218 38 66 90 117 156 154 66 36 140 55 222 55zm1188-943c131 0 235 31 309 94 75 63 112 149 112 259s-37 197-112 259c-74 62-178 94-309 94h-277v325h-109V6860h386zm-3 610c102 0 180-23 234-67 54-45 81-108 81-190 0-83-27-147-81-192s-132-67-234-67h-274v516h274zm1720-610v1031h-105v-825l-405 694h-52l-405-690v821h-105V6860h90l448 765 444-765h90zm1008 756h-575l-124 275h-113l471-1031h108l471 1031h-115l-123-275zm-40-89-248-554-247 554h495zm1478 270v336h-102v-242h-900V6860h108v937h623v-937h107v937h164zm217-937h107v854l661-854h98v1031h-107v-853l-661 853h-98V6860zm1667 1040c-103 0-195-23-278-68-83-46-148-109-195-188-46-80-70-169-70-268 0-100 24-189 70-269 47-79 112-142 195-188 83-45 175-68 278-68 102 0 194 22 276 68 82 45 147 107 194 188 47 80 70 169 70 269 0 99-23 188-70 268-47 81-112 143-194 188-82 46-174 68-276 68zm0-97c81 0 155-19 221-55 65-37 117-88 154-154 38-65 56-138 56-218 0-81-18-154-56-219-37-66-89-117-154-154-66-36-140-55-221-55-82 0-156 19-222 55-67 37-119 88-156 154-38 65-57 138-57 219 0 80 19 153 57 218 37 66 89 117 156 154 66 36 140 55 222 55zm1663-943v1031h-107v-476h-646v476h-109V6860h109v460h646v-460h107zm1210 0v1031h-107v-476h-646v476h-109V6860h109v460h646v-460h107zm780 368c122 0 215 28 279 83 65 55 97 135 97 241 0 111-34 196-103 253-68 58-166 86-295 86h-410V6860h108v368h324zm-25 576c95 0 168-21 217-63 50-42 75-105 75-187 0-158-97-237-292-237h-299v487h299zm579-944h108v1031h-108V6860zm456 0h107v854l660-854h99v1031h-107v-853l-661 853h-98V6860zm430-75c-74 0-132-17-175-51-42-33-64-80-65-140h81c1 40 15 71 44 93 28 23 67 34 115 34 47 0 85-11 114-34 29-22 44-53 45-93h81c-1 60-23 107-66 140-43 34-101 51-174 51zm2038 75v1031h-107v-937h-653v937h-108V6860h868zm800 1040c-102 0-194-23-277-68-83-46-148-109-195-188-47-80-70-169-70-268 0-100 23-189 70-269 47-79 112-142 195-188 83-45 175-68 277-68 103 0 195 22 277 68 82 45 146 107 194 188 47 80 70 169 70 269 0 99-23 188-70 268-48 81-112 143-194 188-82 46-174 68-277 68zm0-97c82 0 156-19 221-55 66-37 118-88 155-154 38-65 56-138 56-218 0-81-18-154-56-219-37-66-89-117-155-154-65-36-139-55-221-55-81 0-155 19-221 55-67 37-119 88-157 154-37 65-56 138-56 219 0 80 19 153 56 218 38 66 90 117 157 154 66 36 140 55 221 55zm1188-943c132 0 235 31 310 94 74 63 112 149 112 259s-38 197-112 259c-75 62-178 94-310 94h-277v325h-109V6860h386zm-3 610c102 0 181-23 235-67 54-45 81-108 81-190 0-83-27-147-81-192s-133-67-235-67h-274v516h274zm1290-516h-363v937h-107v-937h-363v-94h833v94zm800 662h-575l-123 275h-114l472-1031h107l472 1031h-115l-124-275zm-40-89-247-554-248 554h495zm1288-667v1031h-107v-937h-498l-12 345c-5 142-17 257-35 344s-46 152-83 195c-37 42-87 64-149 64-26 0-54-4-82-11l8-97c17 4 33 6 49 6 43 0 78-17 105-52 27-34 48-87 62-160 13-72 23-167 28-286l14-442h700zm734 0h755v93h-647v337h337c122 0 215 25 278 75 64 50 95 123 95 218 0 100-34 176-102 229s-166 79-294 79h-422V6860zm420 944c96 0 168-18 216-54 49-36 73-91 73-162s-24-124-71-159c-48-35-120-52-218-52h-312v427h312zm652-944h107v854l661-854h98v1031h-107v-853l-661 853h-98V6860zm1214 0h755v93h-647v337h337c122 0 215 25 278 75s95 123 95 218c0 100-34 176-102 229-69 53-167 79-294 79h-422V6860zm420 944c95 0 167-18 216-54s73-91 73-162-24-124-71-159c-48-35-121-52-218-52h-312v427h312zm1433-944v1031h-108v-937h-498l-12 345c-5 142-16 257-34 344-19 87-46 152-84 195-37 42-87 64-149 64-26 0-54-4-82-11l9-97c16 4 33 6 48 6 44 0 79-17 106-52 27-34 47-87 61-160 14-72 23-167 28-286l15-442h700zm347 0h108v854l660-854h99v1031h-108v-853l-660 853h-99V6860zm1667 1040c-102 0-194-23-278-68-83-46-147-109-194-188-47-80-70-169-70-268 0-100 23-189 70-269 47-79 111-142 194-188 84-45 176-68 278-68s195 22 277 68c82 45 146 107 193 188 48 80 71 169 71 269 0 99-23 188-71 268-47 81-111 143-193 188-82 46-175 68-277 68zm0-97c82 0 156-19 221-55 66-37 118-88 155-154 37-65 56-138 56-218 0-81-19-154-56-219-37-66-89-117-155-154-65-36-139-55-221-55-81 0-155 19-222 55-66 37-118 88-156 154-38 65-56 138-56 219 0 80 18 153 56 218 38 66 90 117 156 154 67 36 141 55 222 55zm1462-849h-362v937h-108v-937h-362v-94h832v94zm921 843v94h-729V6860h707v94h-598v367h533v93h-533v383h620zm584-379h-236v473h-106V6860h106v462h236l349-462h118l-383 501 405 530h-125l-364-473zm1807-558v1031h-106v-427c-112 48-221 72-326 72-121 0-215-29-282-88-68-59-101-142-101-248v-340h107v328c0 80 25 142 76 186 50 44 120 66 210 66 104 0 209-24 316-73v-507h106zm1079 937v94h-730V6860h708v94h-599v367h534v93h-534v383h621zm1050-937v1031h-107v-937h-498l-12 345c-5 142-17 257-35 344s-46 152-83 195c-37 42-87 64-149 64-26 0-54-4-82-11l8-97c17 4 33 6 49 6 43 0 78-17 105-52 28-34 48-87 62-160 13-72 23-167 28-286l14-442h700zm1079 0v1031h-107v-312h-308c-14 0-34-1-59-3l-217 315h-116l234-334c-76-23-134-63-174-120-40-58-60-128-60-212 0-116 36-206 109-269 74-64 173-96 297-96h401zm-698 362c0 85 24 150 74 196 50 45 122 68 217 68h300v-532h-289c-96 0-171 23-223 69-53 45-79 112-79 199zm1046-362h755v93h-647v337h337c122 0 215 25 278 75s95 123 95 218c0 100-34 176-102 229-69 53-167 79-294 79h-422V6860zm420 944c95 0 167-18 216-54s73-91 73-162-24-124-72-159c-47-35-120-52-217-52h-312v427h312zm651-944h108v854l660-854h99v1031h-108v-853l-660 853h-99V6860zm2077 0v1031h-108v-476h-645v476h-109V6860h109v460h645v-460h108zm799 1040c-102 0-194-22-277-68-82-45-146-107-193-188-46-80-70-169-70-268 0-100 24-189 70-269 47-81 112-143 194-188 83-46 175-68 277-68 77 0 148 13 212 38 65 26 120 63 166 112l-70 69c-80-81-182-122-305-122-81 0-156 19-222 56-67 37-119 89-157 153-38 65-57 138-57 219 0 80 19 153 57 218 38 64 90 116 157 153 66 37 141 56 222 56 124 0 226-41 305-124l70 69c-46 50-101 87-166 113-66 26-137 39-213 39zm946-482h-236v473h-106V6860h106v462h236l349-462h118l-383 501 405 530h-125l-364-473zm1108 482c-102 0-195-23-278-68-83-46-147-109-194-188-47-80-70-169-70-268 0-100 23-189 70-269 47-79 111-142 194-188 83-45 176-68 278-68s195 22 277 68c82 45 146 107 193 188 48 80 71 169 71 269 0 99-23 188-71 268-47 81-111 143-193 188-82 46-175 68-277 68zm0-97c82 0 155-19 221-55 66-37 118-88 155-154 37-65 56-138 56-218 0-81-19-154-56-219-37-66-89-117-155-154-66-36-139-55-221-55-81 0-155 19-222 55-66 37-118 88-156 154-38 65-57 138-57 219 0 80 19 153 57 218 38 66 90 117 156 154 67 36 141 55 222 55zm802-943h108v854l660-854h99v1031h-108v-853l-660 853h-99V6860zm430-75c-73 0-132-17-174-51-43-33-65-80-66-140h81c1 40 16 71 44 93 29 23 67 34 115 34 47 0 86-11 115-34 29-22 43-53 44-93h82c-1 60-24 107-67 140-43 34-101 51-174 51zm1623 1115c-102 0-195-23-278-68-83-46-148-109-194-188-47-80-70-169-70-268 0-100 23-189 70-269 46-79 111-142 194-188 83-45 176-68 278-68s194 22 276 68c82 45 147 107 194 188 47 80 71 169 71 269 0 99-24 188-71 268-47 81-112 143-194 188-82 46-174 68-276 68zm0-97c81 0 155-19 221-55 66-37 117-88 155-154 37-65 56-138 56-218 0-81-19-154-56-219-38-66-89-117-155-154-66-36-140-55-221-55-82 0-156 19-222 55-66 37-118 88-156 154-38 65-57 138-57 219 0 80 19 153 57 218 38 66 90 117 156 154 66 36 140 55 222 55zm802-943h754v93h-647v337h338c122 0 214 25 278 75 63 50 95 123 95 218 0 100-35 176-103 229s-166 79-294 79h-421V6860zm420 944c95 0 167-18 216-54 48-36 73-91 73-162s-24-124-72-159-120-52-217-52h-313v427h313zm1432-944v1031h-107v-937h-499l-11 345c-5 142-17 257-35 344s-46 152-83 195c-38 42-87 64-149 64-27 0-54-4-83-11l9-97c17 4 33 6 49 6 43 0 78-17 105-52 27-34 48-87 61-160 14-72 23-167 28-286l15-442h700zm1008 756h-575l-123 275h-114l472-1031h107l472 1031h-115l-124-275zm-40-89-247-554-248 554h495zm913 373c-102 0-195-22-277-68-82-45-146-107-193-188-46-80-70-169-70-268 0-100 24-189 70-269 47-81 112-143 194-188 83-46 175-68 277-68 77 0 148 13 212 38 65 26 120 63 165 112l-69 69c-80-81-182-122-305-122-81 0-156 19-222 56-67 37-120 89-157 153-38 65-57 138-57 219 0 80 19 153 57 218 37 64 90 116 157 153 66 37 141 56 222 56 124 0 226-41 305-124l69 69c-45 50-100 87-165 113-66 26-137 39-213 39zm1266-946h-363v937h-107v-937h-363v-94h833v94zm191-94h108v854l660-854h99v1031h-108v-853l-660 853h-99V6860z"/><path class="fil1" d="M77 16zM77 7902z"/><g id="_2211878927248"><path class="fil1" d="M105 49zM105 3016v-82zM105 4934v83-83zM105 4258v84-84zM105 3609v83-83zM105 3242v73-73zM105 4709v-74zM105 2713v-80zM105 5318v-81zM105 2282v91-91zM105 5578v91-91zM105 49v1zM105 495V375zM105 6000v-91zM105 6300v-100zM105 696v110-110zM105 1434v-101zM105 1650v100-100zM105 1012v109-109zM105 2041v-90zM1390 7902h100zM105 6617v-100zM2007 7902h91-91zM1707 7902h99zM6573 7902h100zM6886 7902h109-109zM7958 7902h-1zM7512 7902h120zM7201 7902h110-110zM6257 7902h100zM105 7255v-110zM105 7902v-1zM105 7576v-120zM1068 7902h110-110zM105 6939v-110zM105 7902h1zM752 7902h110zM431 7902h120zM5966 7902h90zM5634 7902h91zM2338 7902h91zM5294 7902h80zM2689 7902h81zM4692 7902h73zM3298 7902h73-73zM3665 7902h84-84zM4315 7902h83zM2990 7902h83zM4991 7902h82-82zM5797 7106c138 239 228 509 259 796h201c-20-199-65-391-133-572-113-69-222-144-327-224zM6976 7721c8 60 14 120 19 181h206c-3-40-5-79-9-118-73-19-145-40-216-63zM7304 7810c3 30 5 61 7 92h201l-3-51c-69-12-137-26-205-41zM6257 7407c50 158 84 324 100 495h216c-11-123-29-244-57-362-88-41-175-85-259-133zM7357 6718c80 24 162 45 245 62-31-81-65-161-101-240-92-24-182-53-270-87 46 87 88 175 126 265zM6631 7592c20 101 34 205 43 310h212c-6-74-14-148-25-220-78-28-155-58-230-90zM7630 7870c1 10 2 21 2 32h325l-120-9c-69-6-138-14-207-23zM6668 1794c122-84 250-158 385-221 55-94 105-191 150-290-97 35-192 75-284 120-74 137-158 268-251 391zM713 906c26 82 56 162 88 241 89 29 177 62 262 99-41-87-78-175-112-265-78-28-158-53-238-75zM1395 6156c-122 84-250 158-385 221-54 95-104 191-150 291 97-35 192-76 284-121 74-136 158-267 251-391zM713 7044c80-21 160-46 238-74 34-90 71-178 112-265-85 37-173 70-262 99-32 79-62 159-88 240zM1395 1794c-93-124-177-254-251-391-92-45-187-85-284-120 46 99 96 196 150 290 135 63 263 137 385 221zM226 7893l-120 9h325c1-11 1-22 2-32-69 9-138 17-207 23zM1547 7540c-28 118-46 239-57 362h217c15-171 49-337 99-495-84 48-171 92-259 133zM7350 906c-80 22-160 47-238 74-33 91-71 179-112 265 85-36 173-69 262-98 33-79 62-159 88-241zM554 7851l-3 51h201c2-31 4-62 7-92-68 15-136 29-205 41zM4685 3055c-72 15-146 26-219 36-17 69-31 138-44 208 72-8 143-19 214-31 14-72 30-143 49-213zM1939 7330c-68 181-113 373-133 572h201c31-287 121-557 259-796-105 80-214 155-327 224zM4032 7423c-308 0-570 201-661 479h294c74-126 210-212 367-212 156 0 292 86 366 212h294c-91-278-353-479-660-479z"/><path class="fil1" d="M4032 7760c-116 0-218 57-283 142h566c-66-85-168-142-283-142z"/><path class="fil1" d="M4032 6836c-633 0-1159 462-1262 1066h220c100-483 529-848 1042-848 512 0 941 365 1041 848h221c-104-604-629-1066-1262-1066z"/><path class="fil1" d="M4032 6499c-820 0-1497 612-1603 1403h260c104-648 665-1146 1343-1146 677 0 1238 498 1342 1146h260c-106-791-783-1403-1602-1403z"/><path class="fil1" d="M5248 6599c-334-267-756-429-1216-429s-883 162-1217 429c-95 107-196 207-302 302-225 281-373 625-415 1001h240c107-840 825-1493 1694-1493 868 0 1586 653 1693 1493h241c-42-376-191-720-416-1000-106-96-207-197-302-303z"/><path class="fil1" d="M4032 7134c-469 0-861 329-959 768h225c94-317 387-549 734-549 346 0 639 232 733 549h225c-98-439-490-768-958-768zM1202 7682c-11 72-19 146-24 220h212c8-105 22-209 43-310-76 32-153 62-231 90zM5105 3152c81-27 162-56 240-88 29-90 62-177 99-263-86 41-175 79-265 113-28 78-52 157-74 238zM4697 3708c-7 89-11 177-11 267s4 179 11 267c68 12 137 26 204 41-9-101-15-204-15-308 0-103 6-206 15-307-67 15-136 28-204 40zM4855 2902c81-22 160-46 238-74 34-90 71-179 113-265-86 37-173 70-263 98-32 79-61 159-88 241zM4763 3244c74-16 147-35 219-55 19-78 41-154 66-230-76 25-152 47-230 66-20 72-39 145-55 219zM5002 2525c98-35 192-75 284-120 75-137 159-267 251-391-121 84-250 158-384 221-55 94-105 191-151 290zM5472 2305c426-250 782-605 1031-1031-418 259-771 613-1031 1031zM4402 3422c-10 69-18 138-25 207 70-6 139-14 207-24 8-71 18-141 29-211-70 11-140 21-211 28zM4613 4557c-11-70-21-140-28-211-69-10-138-18-207-25 6 70 14 139 24 207 71 8 141 18 211 29zM4739 3371c-12 71-23 142-31 213 70-12 139-27 208-43 10-74 21-147 36-219-70 18-141 35-213 49zM6733 1504c-426 249-782 605-1031 1031 418-260 772-613 1031-1031zM4495 2977c75-11 150-26 224-42 24-78 50-155 78-230-77 20-155 37-235 52-25 72-47 145-67 220zM4368 3750c-4 75-7 150-7 225 0 76 3 151 7 225 70 6 139 14 207 24-6-83-9-165-9-249 0-83 3-166 9-248-68 10-137 17-207 23zM4952 4629c-15-72-26-146-36-219-69-17-138-31-208-44 8 72 19 143 31 213 72 15 143 31 213 50zM5302 4741c-20-77-37-156-52-235-72-25-146-47-220-67 11 75 25 150 42 224 78 23 155 50 230 78zM5993 2470c-124 92-255 176-391 251-45 92-85 186-121 284 100-46 197-96 291-151 63-134 137-263 221-384zM4996 3975c0 113 6 224 18 334 72 19 144 40 215 63-17-130-27-262-27-397 0-134 10-267 27-396-71 22-143 44-215 63-12 109-18 221-18 333zM5754 2252c-122 88-251 166-386 235-50 93-95 189-136 287 99-40 195-85 288-135 69-135 147-264 234-387zM5345 3539c-22 143-33 288-33 436 0 149 11 294 33 436 78 28 154 58 230 90-34-170-53-346-53-526s19-355 53-525c-76 32-152 62-230 89zM5030 3512c74-20 148-43 220-67 15-80 32-158 52-235-75 28-152 54-230 78-17 74-31 148-42 224zM5369 4548c17 83 38 164 62 244 91 38 179 81 265 126-33-88-63-178-87-270-78-36-158-70-240-100zM5431 3159c-24 80-45 161-62 244 82-31 162-64 240-100 24-92 54-182 87-270-86 45-175 88-265 126zM5444 5149c-37-85-70-173-99-262-78-32-159-62-240-88 22 81 46 160 74 238 90 34 179 71 265 112zM5772 5096c-94-54-191-104-291-150 36 97 76 192 121 284 137 75 267 159 391 251-84-121-158-250-221-385zM5754 5698c-87-122-165-251-234-387-93-49-189-94-288-135 41 99 86 195 136 288 135 68 264 147 386 234zM871 7784c-4 39-6 79-9 118h206c5-61 11-121 19-181-71 23-143 44-216 63zM1037 7056c-28 78-53 157-74 238 81-26 161-56 240-88 29-89 62-177 99-262-87 41-175 78-265 112zM1227 7545c81-30 161-64 240-100 24-92 53-182 87-270-87 45-175 88-265 126-24 80-45 161-62 244zM888 7655c74-21 147-43 220-68 14-79 31-158 52-235-76 28-153 55-231 78-16 74-30 149-41 225zM676 7167c-21 72-39 145-55 219 74-16 147-34 219-55 19-78 41-154 65-229-75 24-152 46-229 65zM2025 7132c402-272 748-619 1021-1021-442 219-803 579-1021 1021zM4032 5882c-278 0-543 51-788 143-69 113-144 222-224 327 298-172 643-271 1012-271 368 0 713 99 1011 271-80-105-154-214-224-327-245-92-510-143-787-143zM1693 7098c-41 94-76 191-106 290 97-48 192-100 284-156 56-137 125-267 204-389-121 93-249 178-382 255zM832 6453c-88 34-178 63-270 87-36 79-70 159-100 240 82-17 164-38 244-62 38-90 81-178 126-265zM235 7772c70-7 139-14 207-24 7-72 17-142 29-212-70 11-141 21-212 29-10 68-18 137-24 207zM566 7727c70-13 139-27 207-43 10-74 22-148 36-220-70 19-141 35-212 50-13 70-23 141-31 213zM280 7441c72-8 143-18 213-31 15-71 31-142 50-212-73 14-146 26-220 36-16 68-30 137-43 207zM655 6847c-77 21-156 38-235 52-25 73-48 146-68 220 76-11 151-25 225-42 23-78 49-154 78-230zM105 7902zM1164 5931c-122 80-252 149-389 205-56 92-108 187-156 284 99-30 196-65 290-106 77-133 162-261 255-383zM7644 6899c-80-14-159-31-236-52 29 76 55 152 78 231 74 16 149 30 225 41-20-74-43-147-67-220zM7592 7536c12 70 22 140 29 212 68 10 137 17 207 24-6-70-14-139-24-207-71-8-142-18-212-29zM7254 7464c15 72 26 146 36 220 68 16 138 30 208 43-8-72-19-143-31-213-72-15-143-31-213-50z"/><path class="fil1" d="M7958 2373c-791 106-1403 783-1403 1602s612 1497 1403 1603v91c-840-107-1493-825-1493-1694 0-868 653-1586 1493-1693v91zm0 340c-604 104-1066 630-1066 1262 0 633 462 1159 1066 1262v81c-648-104-1146-666-1146-1343s498-1238 1146-1342v80zm0 303c-439 99-768 491-768 959s329 860 768 959v83c-483-100-848-529-848-1042 0-512 365-941 848-1041v82zm0 299c-278 91-479 353-479 660 0 308 201 569 479 660v73c-317-93-549-386-549-733 0-346 232-639 549-733v73zm0 378c-85 65-141 167-141 282 0 116 56 218 141 283v84c-126-75-211-210-211-367 0-156 85-292 211-366v84zM4032 1541c-869 0-1587-652-1694-1492h91c106 790 784 1402 1603 1402S5528 839 5634 49h91c-107 840-825 1492-1693 1492zM2770 49c103 604 629 1066 1262 1066 632 0 1158-462 1261-1066h81c-104 648-665 1146-1342 1146S2793 697 2689 49h81zm303 0c99 439 491 768 959 768s860-329 958-768h83c-100 483-529 847-1041 847-513 0-942-364-1042-847h83zm299 0c91 278 352 479 660 479 307 0 568-201 660-479h73c-94 317-387 549-733 549-347 0-640-232-734-549h74zm377 0c65 85 167 141 283 141 115 0 217-56 282-141h84c-74 126-210 211-366 211-157 0-292-85-367-211h84zm4209 0H105l121 9c69 6 138 14 207 23-1-11-1-21-2-32h120l3 51c69 12 137 25 205 41-3-31-5-61-7-92h110c3 39 5 79 9 118 73 19 145 40 216 63-8-60-14-120-19-181h110c5 74 13 148 24 220 78 28 155 57 231 90-21-102-35-205-43-310h100c11 123 29 244 57 361 88 41 175 86 259 134-50-159-83-324-99-495h99c20 199 65 391 133 572 113 69 222 144 327 224-138-240-228-509-259-796h91c42 376 190 720 415 1000 106 95 207 196 302 302 334 268 756 429 1217 429 460 0 882-161 1216-429 95-106 196-207 302-302 225-280 374-624 415-1000h91c-31 287-121 556-259 796 105-80 214-155 327-224 68-181 113-373 133-572h100c-16 171-50 336-100 494 84-47 171-92 259-133 28-117 46-238 57-361h101c-9 105-23 208-43 310 75-33 152-62 230-90 11-72 19-146 24-220h110c-5 61-11 121-19 181 71-23 143-44 216-63 4-39 6-79 9-118h110c-2 31-4 61-7 92 68-16 136-29 205-41l3-51h120c0 11-1 21-2 32 69-9 138-17 207-23l121-9-9 121c-6 69-14 138-23 207 10-1 21-2 32-2v120l-51 3c-12 69-26 137-41 204 31-2 61-4 92-6v110c-40 2-79 5-118 9-19 73-40 145-63 215 60-7 120-13 181-18v109c-74 6-148 14-220 25-28 78-57 155-90 230 102-20 205-34 310-43v101c-123 11-244 29-361 56-42 89-86 175-134 260 159-50 324-84 495-100v100c-199 19-391 65-572 133-69 113-144 222-224 326 239-137 509-227 796-258v90c-376 42-720 191-1000 416-95 106-196 207-302 302-268 334-429 756-429 1216s161 883 429 1217c106 95 206 196 302 302 280 225 624 373 1000 415v91c-287-31-557-121-796-259 80 105 155 214 224 327 181 68 373 113 572 132v100c-171-16-336-49-495-100 48 85 92 172 134 260 117 28 238 46 361 57v100c-105-8-208-22-310-43 33 76 62 153 90 230 72 12 146 20 220 25v110c-61-5-121-11-181-19 23 71 44 143 63 216 39 4 78 6 118 9v110c-31-2-61-4-92-7 15 68 29 136 41 205l51 3v120c-11-1-22-1-32-2 9 69 17 137 23 207l9 121V49zM6509 7175c34 88 63 178 87 270 79 36 159 70 240 100-17-83-38-164-62-244-90-38-178-81-265-126z"/><path class="fil1" d="M7387 7167c-77-19-154-41-229-65 24 75 46 151 65 229 73 21 145 39 219 55-16-74-34-147-55-219zM5017 6111c273 402 620 749 1021 1021-218-442-578-802-1021-1021zM5988 6843c80 122 148 252 204 389 92 56 187 108 284 156-29-99-65-196-106-290-133-77-261-162-382-255zM7026 7056c-90-34-178-71-265-112 37 85 70 173 99 262 79 32 159 62 241 88-22-81-47-160-75-238zM6903 7352c21 77 38 156 52 235 73 25 146 47 220 68-11-76-25-151-41-225-78-23-155-50-231-78zM7740 7234c-74-10-147-22-219-36 18 70 35 141 49 212 70 13 141 23 213 31-12-70-27-139-43-207zM1407 5192c268-334 429-757 429-1217s-161-882-428-1216c-106-95-207-196-303-302-280-225-624-374-1000-416v241c840 107 1493 825 1493 1693 0 869-653 1587-1493 1694v240c376-42 720-190 1001-415 95-106 195-207 301-302z"/><path class="fil1" d="M584 3975c0-307-201-569-479-660v294c126 74 211 210 211 366 0 157-85 293-211 367v294c278-92 479-353 479-661z"/><path class="fil1" d="M873 3975c0-468-329-860-768-959v226c317 93 549 387 549 733 0 347-232 640-549 734v225c439-99 768-491 768-959zM901 5741c-239 138-509 228-796 259v200c199-19 391-64 572-132 69-113 144-222 224-327z"/><path class="fil1" d="M1171 3975c0-633-462-1159-1066-1262v221c483 100 848 529 848 1041 0 513-365 942-848 1042v220c604-103 1066-629 1066-1262z"/><path class="fil1" d="M1508 3975c0-819-612-1496-1403-1602v260c648 103 1146 665 1146 1342 0 678-498 1239-1146 1343v260c791-106 1403-784 1403-1603zM137 7574c-10 1-21 1-32 2v325l9-120c6-69 14-138 23-207zM577 873c-74-16-149-30-225-41 21 74 43 147 68 220 79 14 158 31 235 52-29-76-55-153-78-231zM600 6200c-159 51-324 84-495 100v217c123-11 244-29 361-57 42-88 86-175 134-260zM286 6920c-60 8-120 14-181 19v206c39-3 79-5 118-9 19-73 40-145 63-216zM415 6574c-101 21-205 35-310 43v212c74-5 148-13 220-25 28-77 57-154 90-230zM114 170l-9-120v325c11 0 22 1 32 2-9-69-17-138-23-207zM1896 4961c-402 272-749 619-1021 1021 442-219 802-579 1021-1021zM909 1637c-94-41-191-77-290-106 48 97 100 192 156 283 137 57 267 125 389 205-93-121-178-249-255-382zM706 1232c-80-23-162-44-244-61 30 81 64 161 100 240 92 24 182 53 270 87-45-87-88-175-126-266zM2125 3975c0-277-51-542-144-787-112-70-221-145-326-224 172 298 271 643 271 1011 0 369-99 714-271 1012 105-80 214-155 326-224 93-245 144-510 144-788zM875 1969c272 401 619 748 1021 1021-219-443-579-803-1021-1021zM223 815c-39-4-79-7-118-9v206c61 5 121 10 181 19-23-71-44-143-63-216zM677 1883c-181-68-373-114-572-133v201c287 30 556 121 796 258-80-104-155-213-224-326zM466 1490c-117-27-238-45-361-56v216c171 16 336 50 495 100-48-85-92-171-134-260zM325 1146c-72-11-146-19-220-25v212c105 9 209 23 310 43-32-75-62-152-90-230z"/><path class="fil1" d="M246 3975c0-115-56-217-141-283v566c85-65 141-167 141-283zM156 498l-51-3v201c31 2 61 4 92 6-15-67-29-135-41-204zM197 7248c-31 3-61 5-92 7v201l51-3c12-69 26-137 41-205zM2811 5878c-430 235-785 590-1020 1019 407-265 755-613 1020-1019zM2114 4686c85-48 172-92 260-133 43-186 67-379 67-578 0-198-24-391-67-577-88-41-175-86-260-133 72 224 111 463 111 710 0 248-39 487-111 711zM3302 5673c-99 30-196 65-290 106-77 133-162 261-255 383 122-80 252-149 388-205 57-92 108-187 157-284zM1845 5250c122-93 250-178 383-255 41-94 76-191 106-290-97 49-192 100-284 157-56 136-125 266-205 388zM3459 5313c-83 17-164 38-244 62-38 90-81 178-126 265 88-34 178-63 270-87 36-79 70-159 100-240zM1110 6216c429-235 784-590 1019-1020-406 265-754 613-1019 1020zM1612 6395c-122 87-252 166-387 234-50 93-95 189-135 288 98-40 195-86 288-135 68-135 147-265 234-387zM1851 6612c-124 93-255 176-391 251-45 92-86 187-121 284 100-46 196-96 290-150 64-135 138-264 222-385zM6272 6897c-235-429-590-784-1020-1019 266 406 613 754 1020 1019zM6724 7147c-35-97-75-192-121-284-136-74-267-158-391-251 84 121 158 250 222 385 94 54 191 104 290 150zM6838 6629c-135-68-265-147-387-234 87 122 166 252 234 387 93 50 190 95 288 135-40-99-85-195-135-288zM4742 5893c-47-85-92-172-133-260-186-43-379-67-577-67-199 0-392 24-578 67-41 88-85 175-133 260 224-72 463-111 711-111 247 0 486 39 710 111zM5306 6162c-93-122-178-250-255-383-94-41-190-76-290-106 49 97 101 192 157 284 136 56 266 125 388 205zM4848 5375c-80-24-161-45-244-62 31 81 64 161 100 240 92 24 182 53 270 87-45-87-88-175-126-265zM3321 2058c48 85 92 171 133 260 186 43 379 67 578 67 198 0 391-24 577-67 41-89 86-175 133-260-224 72-463 111-710 111-248 0-487-39-711-111zM5252 2073c430-235 785-590 1020-1020-407 266-755 614-1020 1020zM4761 2278c100-30 196-65 290-107 77-132 162-260 255-382-122 80-252 149-388 205-56 92-108 187-157 284zM4604 2638c83-17 164-38 244-62 38-91 81-179 126-265-88 33-178 63-270 87-36 78-69 158-100 240zM7053 6377c-135-63-263-137-385-221 93 124 177 255 251 391 92 45 187 86 284 121-45-100-96-196-150-291zM6451 1556c123-88 252-166 387-234 50-94 95-190 135-288-98 40-194 85-288 135-68 135-146 264-234 387zM6212 1339c124-93 255-177 391-251 46-92 86-187 121-284-99 45-196 95-290 150-63 135-138 263-222 385zM2334 3246c-30-100-65-196-106-290-133-77-261-162-383-255 80 122 149 252 205 388 92 56 187 108 284 157zM1225 1322c135 68 265 146 387 234-87-123-166-252-234-387-93-50-190-95-288-135 40 98 85 194 135 288zM1339 804c35 97 76 192 121 284 136 74 267 158 391 250-84-121-158-249-222-384-94-55-190-105-290-150zM2129 2755c-235-430-590-785-1019-1020 265 407 613 754 1019 1020zM3215 2576c80 24 161 45 244 62-30-82-64-162-100-240-92-24-182-54-270-87 45 86 88 174 126 265zM2757 1789c93 122 178 249 255 382 94 42 191 77 290 107-49-97-100-192-157-284-136-56-266-125-388-205zM1791 1053c235 430 590 785 1020 1020-265-406-613-754-1020-1020zM5938 3975c0 278 51 543 144 788 112 69 221 144 326 224-172-298-271-643-271-1012 0-368 99-713 271-1011-105 79-214 154-326 224-93 245-144 510-144 787zM3046 1839c-273-401-619-748-1021-1020 218 442 579 802 1021 1020zM2075 1107c-79-122-148-251-204-388-92-56-187-108-284-156 30 99 65 196 106 289 133 77 261 162 382 255z"/><path class="fil1" d="M4032 2069c277 0 542-51 787-144 70-112 144-221 224-326-298 172-643 271-1011 271-369 0-714-99-1012-271 80 105 155 213 224 326 245 93 510 144 788 144zM1554 776c-34-88-63-178-87-270-79-36-159-70-240-101 17 83 38 164 62 245 90 38 178 80 265 126zM6038 819c-401 272-748 619-1021 1020 443-218 803-578 1021-1020zM7350 7044c-26-81-55-161-88-240-89-29-177-62-262-99 41 87 79 175 112 265 78 28 158 53 238 74zM1160 599c-21-77-38-156-52-236-73-24-146-47-220-67 11 76 25 151 41 225 78 23 155 49 231 78zM442 203c-68-10-137-18-207-24 6 69 14 138 24 207 71 7 142 17 212 29-12-70-22-141-29-212zM809 486c-14-72-26-145-36-219-68-16-137-31-207-43 8 72 18 143 31 213 71 14 142 31 212 49zM493 540c-70-12-141-23-213-31 13 70 27 140 43 208 74 10 147 21 220 36-19-70-35-141-50-213zM676 783c77 20 154 41 229 66-24-75-46-152-65-230-72-20-145-38-219-54 16 74 34 146 55 218zM1037 895c90 33 178 71 265 112-37-85-70-173-99-262-79-33-159-62-240-89 21 81 46 161 74 239zM6836 405c-81 31-161 65-240 101-24 92-53 182-87 269 87-45 175-87 265-125 24-81 45-162 62-245zM6370 852c41-93 77-190 106-289-97 48-192 100-284 156-56 136-124 266-204 388 121-93 249-178 382-255zM6954 1735c-430 235-785 590-1020 1020 406-266 754-613 1020-1020zM6168 2990c401-273 748-620 1020-1021-442 218-802 578-1020 1021zM6900 2019c122-80 252-148 388-205 56-91 108-186 156-283-99 29-196 65-289 106-77 133-162 261-255 382zM7188 5982c-272-402-619-749-1020-1021 218 442 578 802 1020 1021zM7026 895c28-78 53-158 75-239-82 27-162 56-241 89-29 89-62 177-99 262 87-41 175-79 265-112zM7155 6314c93 41 190 76 289 106-48-97-100-192-156-284-137-56-266-125-388-205 92 122 177 250 255 383zM7231 1498c88-34 178-63 270-87 36-79 70-159 101-240-83 17-165 38-245 61-38 91-80 179-126 266zM7387 783c21-72 39-144 55-218-74 15-146 34-219 55-19 77-41 154-65 229 75-24 152-46 229-66zM7175 296c-74 20-147 43-220 67-14 80-31 159-52 236 76-29 153-55 231-78 16-74 30-149 41-225zM7828 179c-70 6-139 14-207 24-7 71-17 142-29 211 70-11 141-21 212-28 10-69 18-138 24-207zM7498 224c-70 12-140 27-208 43-10 74-22 147-36 219 70-18 141-35 213-49 12-70 23-141 31-213zM7783 509c-72 8-143 19-213 31-14 72-31 143-49 213 72-15 145-26 219-36 16-68 31-138 43-208zM7408 1104c77-21 156-38 235-52 25-73 48-146 68-220-76 11-151 25-225 41-23 78-49 155-78 231zM2718 4411c22-142 33-287 33-436 0-148-11-293-33-436-78-27-154-57-230-89 35 170 53 345 53 525s-18 356-53 526c76-32 152-62 230-90zM2309 2252c87 123 165 252 234 387 93 50 189 95 288 136-41-99-86-195-135-288-136-69-265-147-387-235zM3033 3512c-11-76-25-150-42-224-78-24-155-50-230-78 20 77 37 155 52 235 72 24 146 47 220 67zM2958 3152c-21-81-46-160-74-238-90-34-179-72-265-113 37 86 70 173 99 263 78 32 159 61 240 88zM3033 4439c-74 20-148 42-220 67-15 79-32 158-52 235 75-28 152-55 230-78 17-74 31-149 42-224zM3724 4845c101-9 204-15 308-15 103 0 206 6 307 15-15-68-29-136-40-204-89-7-177-12-267-12s-179 5-268 12c-11 68-25 136-40 204zM2958 4799c-81 26-162 56-240 88-29 89-62 177-99 262 86-41 175-78 265-112 28-78 53-157 74-238zM3015 2959c25 76 47 152 66 230 72 20 145 39 219 55-16-74-35-147-55-219-78-19-154-41-230-66zM2309 5698c122-87 251-166 387-234 49-93 94-189 135-288-99 41-195 86-288 135-69 136-147 265-234 387zM2361 2535c-249-426-605-782-1031-1031 259 418 613 771 1031 1031zM1560 1274c249 426 605 781 1031 1031-260-418-613-772-1031-1031zM2694 3403c-17-83-38-164-62-244-90-38-178-81-265-126 34 88 63 178 87 270 79 36 158 69 240 100zM2582 3005c-35-98-76-192-121-284-136-75-267-159-391-251 84 121 158 250 221 384 94 55 191 105 291 151zM2526 2014c92 124 176 254 251 391 92 45 187 85 284 120-46-99-96-196-150-290-135-63-264-137-385-221zM2857 2563c42 86 79 175 113 265 78 28 157 52 238 74-27-82-56-162-88-241-89-28-177-61-263-98zM3067 3975c0-112-6-224-18-333-72-19-144-41-215-63 17 129 27 262 27 396 0 135-10 267-27 397 71-23 143-44 215-63 12-110 18-221 18-334zM3378 3055c19 70 35 141 49 213 71 12 142 23 214 31-13-70-27-139-44-208-73-10-147-21-219-36zM3597 4860c17-69 31-138 44-208-72 8-143 18-214 31-14 71-30 142-49 212 72-14 146-26 219-35zM3702 3975c0-75-3-150-7-225-70-6-139-13-207-23 6 82 9 165 9 248 0 84-3 166-9 249 68-10 137-18 207-24 4-74 7-149 7-225zM3661 4528c10-68 18-137 25-207-70 7-139 15-207 25-8 71-18 141-29 211 70-11 140-21 211-29zM3686 3629c-7-69-15-138-25-207-71-7-141-17-211-28 11 70 21 140 29 211 68 10 137 18 207 24zM4032 3121c-104 0-207-6-308-15 15 67 29 135 40 204 89 7 178 11 268 11s178-4 267-11c11-69 25-137 40-204-101 9-204 15-307 15zM4428 5173c-22-71-44-143-63-215-109-12-221-18-333-18-113 0-225 6-334 18-19 72-40 144-63 215 130-18 262-27 397-27 134 0 266 9 396 27zM3324 4579c12-70 23-141 31-213-70 13-139 27-208 44-9 73-21 147-36 219 71-19 141-35 213-50zM3378 3975c0-90-5-178-12-267-68-11-136-25-204-40 9 101 15 204 15 307 0 104-6 207-15 308 68-15 136-29 204-41 7-88 12-177 12-267zM3266 2705c28 75 54 152 78 230 74 16 149 31 224 42-20-75-42-148-67-220-80-15-158-32-235-52zM4032 4509c83 0 166 4 248 10-10-69-17-137-23-207-75-4-150-7-225-7-76 0-151 3-226 7-6 70-13 138-23 207 82-6 165-10 249-10zM3355 3584c-8-71-19-142-31-213-72-14-142-31-212-49 14 72 26 145 35 219 69 17 138 31 208 43zM3506 2432c32 75 62 152 89 230 143 22 288 33 437 33 148 0 293-11 436-33 27-78 57-155 89-230-170 34-346 52-525 52-180 0-356-18-526-52zM4685 4895c-19-70-35-141-49-212-71-13-142-23-214-31 13 70 27 139 44 208 74 9 147 21 219 35zM3635 2778c23 71 44 142 63 215 110 12 221 18 334 18 112 0 224-6 333-18 19-73 41-144 63-215-130 17-262 27-396 27-135 0-267-10-397-27zM5048 4992c-25-76-47-152-66-230-72-20-145-39-219-55 16 74 35 147 55 219 78 19 154 41 230 66zM5537 5937c-92-124-176-255-251-391-92-45-186-86-284-121 46 100 96 196 151 291 134 63 263 137 384 221zM2632 4792c24-80 45-161 62-244-82 30-161 64-240 100-24 92-53 182-87 270 86-45 175-88 265-126zM5206 5388c-42-86-79-175-113-265-78-28-157-53-238-74 27 81 56 161 88 240 90 29 177 62 263 99zM4797 5246c-28-76-54-152-78-230-74-17-149-31-224-42 20 74 42 148 67 220 80 14 158 32 235 52zM6218 2701c-122 93-250 178-383 255-41 94-76 190-106 290 97-49 192-101 284-157 56-136 125-266 205-388zM6503 6677c-249-426-605-782-1031-1031 260 418 613 772 1031 1031zM5949 3265c-85 47-172 92-260 133-43 186-67 379-67 577 0 199 24 392 67 578 88 41 175 85 260 133-72-224-111-463-111-711 0-247 39-486 111-710zM5729 4705c30 99 65 196 106 290 133 77 261 162 383 255-80-122-149-252-205-388-92-57-187-108-284-157zM4557 5519c-32-76-62-153-89-230-143-22-288-33-436-33-149 0-294 11-436 33-28 77-58 154-90 230 170-35 346-53 526-53 179 0 355 18 525 53zM5934 5196c235 429 590 785 1020 1020-266-407-614-755-1020-1020zM5702 5416c249 426 605 782 1031 1031-259-418-613-771-1031-1031zM4032 3766c-73 0-145-3-216-6 4 71 6 143 6 215 0 73-2 145-6 216 71-4 143-6 216-6 72 0 144 2 215 6-3-71-6-143-6-216 0-72 3-144 6-215-71 3-143 6-215 6zM3061 5425c-97 35-192 76-284 121-75 136-159 267-251 391 121-84 250-158 385-221 54-94 104-191 150-291zM2591 5646c-426 249-782 605-1031 1031 418-259 771-613 1031-1031zM2070 5481c124-93 255-176 391-251 45-92 86-187 121-284-100 46-197 96-291 150-63 135-137 264-221 385zM1330 6447c426-249 782-605 1031-1031-418 260-772 613-1031 1031zM3208 5049c-81 21-160 46-238 74-34 90-71 179-113 265 86-37 174-70 263-99 32-79 61-159 88-240zM3300 4707c-74 16-147 35-219 55-19 78-41 154-66 230 76-25 152-47 230-66 20-72 39-145 55-219zM3568 4974c-75 11-150 25-224 42-24 78-50 154-78 230 77-20 156-38 235-52 25-72 47-146 67-220zM4280 3432c-82 5-165 9-248 9-84 0-167-4-249-9 10 68 18 137 24 207 74 4 149 7 225 7 75 0 150-3 225-7 6-70 13-139 23-207z"/></g></g></g></svg>