<svg id="Layer_1" data-name="Layer 1" xmlns="http://www.w3.org/2000/svg" viewBox="0 0 120 120"><defs><style>.cls-1{fill:#fff;}.cls-2{fill:#e8412d;}</style></defs><rect class="cls-1" width="120" height="120"/><polygon class="cls-2" points="0 0 0 0 0 0 0 0 0 0"/><polygon class="cls-2" points="0 44.09 0 45.35 0 45.35 0 44.09 0 44.09"/><polygon class="cls-2" points="0 74.65 0 75.91 0 75.91 0 74.65 0 74.65"/><polygon class="cls-2" points="0 64.33 0 65.6 0 65.6 0 64.32 0 64.33"/><polygon class="cls-2" points="0 54.4 0 55.68 0 55.68 0 54.4 0 54.4"/><polygon class="cls-2" points="0 48.8 0 49.91 0 49.91 0 48.8 0 48.8"/><polygon class="cls-2" points="0 70.09 0 71.2 0 71.2 0 70.09 0 70.09"/><polygon class="cls-2" points="0 39.48 0 40.72 0 40.72 0 39.48 0 39.48"/><polygon class="cls-2" points="0 79.28 0 80.52 0 80.52 0 79.28 0 79.28"/><polygon class="cls-2" points="0 120 0 120 0 120 0 120"/><polygon class="cls-2" points="0 34.13 0 35.52 0 35.52 0 34.13 0 34.13"/><polygon class="cls-2" points="0 84.49 0 85.88 0 85.88 0 84.49 0 84.49"/><polygon class="cls-2" points="0 0.01 0 0.02 0 0.01 0 0.01"/><polygon class="cls-2" points="0 4.98 0 6.82 0 6.82 0 4.98 0 4.98"/><polygon class="cls-2" points="0 89.55 0 90.94 0 90.94 0 89.55 0 89.55"/><polygon class="cls-2" points="0 94 0 95.53 0 95.53 0 94 0 94"/><polygon class="cls-2" points="0 9.89 0 11.57 0 11.57 0 9.89 0 9.89"/><polygon class="cls-2" points="0 19.63 0 21.17 0 21.17 0 19.63 0 19.63"/><polygon class="cls-2" points="0 24.48 0 26 0 26 0 24.48 0 24.48"/><polygon class="cls-2" points="0 14.72 0 16.39 0 16.39 0 14.72 0 14.72"/><polygon class="cls-2" points="0 29.06 0 30.45 0 30.45 0 29.06 0 29.06"/><polygon class="cls-2" points="19.63 120 21.17 120 21.17 120 19.63 120 19.63 120"/><polygon class="cls-2" points="0 98.83 0 100.37 0 100.37 0 98.83 0 98.83"/><polygon class="cls-2" points="29.06 120 30.45 120 30.45 120 29.06 120 29.06 120"/><polygon class="cls-2" points="24.48 120 26 120 26 120 24.48 120 24.48 120"/><polygon class="cls-2" points="98.83 120 100.37 120 100.37 120 98.83 120 98.83 120"/><polygon class="cls-2" points="103.61 120 105.28 120 105.28 120 103.61 120 103.61 120"/><polygon class="cls-2" points="119.99 120 119.99 120 119.98 120 119.99 120"/><polygon class="cls-2" points="113.18 120 115.02 120 115.02 120 113.18 120 113.18 120"/><polygon class="cls-2" points="108.43 120 110.11 120 110.11 120 108.43 120 108.43 120"/><polygon class="cls-2" points="94 120 95.53 120 95.53 120 94 120 94 120"/><polygon class="cls-2" points="0 108.43 0 110.11 0 110.11 0 108.43 0 108.43"/><polygon class="cls-2" points="0 120 0 120 0 119.99 0 120"/><polygon class="cls-2" points="0 113.18 0 115.02 0 115.02 0 113.18 0 113.18"/><polygon class="cls-2" points="14.72 120 16.39 120 16.39 120 14.72 120 14.72 120"/><polygon class="cls-2" points="0 103.61 0 105.28 0 105.28 0 103.61 0 103.61"/><polygon class="cls-2" points="0 120 0.01 120 0 120 0 120"/><polygon class="cls-2" points="9.89 120 11.57 120 11.57 120 9.89 120 9.89 120"/><polygon class="cls-2" points="4.98 120 6.82 120 6.82 120 4.98 120 4.98 120"/><polygon class="cls-2" points="89.55 120 90.94 120 90.94 120 89.55 120 89.55 120"/><polygon class="cls-2" points="84.48 120 85.87 120 85.87 120 84.48 120 84.48 120"/><polygon class="cls-2" points="34.13 120 35.51 120 35.51 120 34.13 120 34.13 120"/><polygon class="cls-2" points="79.28 120 80.52 120 80.52 120 79.28 120 79.28 120"/><polygon class="cls-2" points="39.48 120 40.72 120 40.72 120 39.48 120 39.48 120"/><polygon class="cls-2" points="70.09 120 71.2 120 71.2 120 70.09 120 70.09 120"/><polygon class="cls-2" points="48.8 120 49.91 120 49.91 120 48.8 120 48.8 120"/><polygon class="cls-2" points="54.4 120 55.67 120 55.68 120 54.4 120 54.4 120"/><polygon class="cls-2" points="64.32 120 65.6 120 65.6 120 64.32 120 64.32 120"/><polygon class="cls-2" points="44.09 120 45.35 120 45.35 120 44.09 120 44.09 120"/><polygon class="cls-2" points="74.65 120 75.91 120 75.91 120 74.65 120 74.65 120"/><path class="cls-2" d="M87,107.84a30.81,30.81,0,0,1,4,12.16H94a33.85,33.85,0,0,0-2-8.74Q89.39,109.67,87,107.84Z"/><path class="cls-2" d="M105,117.23c.12.92.21,1.84.28,2.77h3.15c0-.6-.08-1.21-.14-1.81C107.18,117.91,106.08,117.58,105,117.23Z"/><path class="cls-2" d="M110,118.59c0,.47.07.94.1,1.41h3.07c0-.26,0-.52-.05-.79C112.08,119,111,118.83,110,118.59Z"/><path class="cls-2" d="M94,112.44A36.33,36.33,0,0,1,95.53,120h3.3a38.47,38.47,0,0,0-.86-5.52C96.62,113.84,95.29,113.17,94,112.44Z"/><path class="cls-2" d="M110.82,101.91c1.22.37,2.46.69,3.73,1-.47-1.25-1-2.47-1.53-3.67a41.41,41.41,0,0,1-4.13-1.33C109.58,99.18,110.23,100.53,110.82,101.91Z"/><path class="cls-2" d="M99.71,115.26a41,41,0,0,1,.66,4.74h3.24c-.09-1.14-.21-2.26-.38-3.37C102,116.21,100.86,115.76,99.71,115.26Z"/><path class="cls-2" d="M115,119.5l0,.5h5l-1.84-.14C117.09,119.77,116,119.65,115,119.5Z"/><path class="cls-2" d="M100.29,26.68a39.31,39.31,0,0,1,5.88-3.38c.83-1.44,1.6-2.92,2.29-4.44a44.81,44.81,0,0,0-4.34,1.84A51,51,0,0,1,100.29,26.68Z"/><path class="cls-2" d="M9.29,13.11c.4,1.24.85,2.47,1.34,3.67a41.85,41.85,0,0,1,4,1.51q-.95-2-1.71-4C11.73,13.82,10.52,13.44,9.29,13.11Z"/><path class="cls-2" d="M19.71,93.32a39.31,39.31,0,0,1-5.88,3.38c-.83,1.44-1.6,2.92-2.29,4.44a44.81,44.81,0,0,0,4.34-1.84A49.76,49.76,0,0,1,19.71,93.32Z"/><path class="cls-2" d="M9.29,106.89c1.23-.33,2.44-.7,3.64-1.13q.77-2.07,1.71-4.05a41.85,41.85,0,0,1-4,1.51C10.14,104.42,9.69,105.65,9.29,106.89Z"/><path class="cls-2" d="M19.71,26.68a49.76,49.76,0,0,1-3.83-6,44.81,44.81,0,0,0-4.34-1.84c.69,1.52,1.46,3,2.29,4.44A39.31,39.31,0,0,1,19.71,26.68Z"/><path class="cls-2" d="M1.85,119.86,0,120H5l0-.5C4,119.65,2.91,119.77,1.85,119.86Z"/><path class="cls-2" d="M22,114.48a38.47,38.47,0,0,0-.86,5.52h3.31A35.68,35.68,0,0,1,26,112.44C24.71,113.16,23.38,113.84,22,114.48Z"/><path class="cls-2" d="M110.71,13.11c-1.23.33-2.45.71-3.64,1.13-.51,1.38-1.08,2.73-1.72,4,1.31-.57,2.65-1.07,4-1.51C109.86,15.58,110.31,14.35,110.71,13.11Z"/><path class="cls-2" d="M6.87,119.21c0,.26,0,.53,0,.79H9.89c0-.47.06-.94.1-1.41C9,118.83,7.92,119,6.87,119.21Z"/><path class="cls-2" d="M70,45.94c-1.1.23-2.22.4-3.35.55-.25,1-.47,2.11-.66,3.17,1.1-.12,2.18-.28,3.26-.47C69.45,48.1,69.7,47,70,45.94Z"/><path class="cls-2" d="M28,111.26A33.85,33.85,0,0,0,26,120h3.06a31,31,0,0,1,4-12.16C31.42,109.06,29.75,110.2,28,111.26Z"/><path class="cls-2" d="M60,112.68A10.64,10.64,0,0,0,49.91,120H54.4a6.47,6.47,0,0,1,11.2,0h4.49A10.64,10.64,0,0,0,60,112.68Z"/><path class="cls-2" d="M60,117.84A5.4,5.4,0,0,0,55.68,120h8.64A5.41,5.41,0,0,0,60,117.84Z"/><path class="cls-2" d="M60,103.71A19.6,19.6,0,0,0,40.72,120h3.37a16.25,16.25,0,0,1,31.82,0h3.37A19.6,19.6,0,0,0,60,103.71Z"/><path class="cls-2" d="M60,98.57A24.75,24.75,0,0,0,35.51,120h4a20.78,20.78,0,0,1,41,0h4A24.76,24.76,0,0,0,60,98.57Z"/><path class="cls-2" d="M78.58,100.09a29.61,29.61,0,0,0-37.16,0,60.89,60.89,0,0,1-4.62,4.61A29.66,29.66,0,0,0,30.45,120h3.68a26.08,26.08,0,0,1,51.74,0h3.68a29.66,29.66,0,0,0-6.35-15.29A59.23,59.23,0,0,1,78.58,100.09Z"/><path class="cls-2" d="M60,108.27A15,15,0,0,0,45.35,120H48.8a11.68,11.68,0,0,1,22.41,0h3.44A15,15,0,0,0,60,108.27Z"/><path class="cls-2" d="M16.77,116.63c-.17,1.11-.3,2.23-.38,3.37h3.24a38.9,38.9,0,0,1,.66-4.74C19.13,115.76,18,116.21,16.77,116.63Z"/><path class="cls-2" d="M76.4,47.41c1.25-.4,2.47-.85,3.68-1.34.44-1.37.94-2.7,1.5-4-1.32.63-2.67,1.2-4,1.72C77.11,45,76.73,46.18,76.4,47.41Z"/><path class="cls-2" d="M70.16,55.92C70.06,57.27,70,58.63,70,60s.07,2.73.17,4.08c1,.18,2.1.39,3.13.62-.15-1.55-.23-3.11-.23-4.7s.08-3.15.23-4.7C72.26,55.53,71.21,55.74,70.16,55.92Z"/><path class="cls-2" d="M72.58,43.6c1.24-.33,2.45-.71,3.64-1.13.52-1.38,1.09-2.73,1.72-4-1.31.56-2.64,1.06-4,1.5C73.44,41.13,73,42.35,72.58,43.6Z"/><path class="cls-2" d="M71.18,48.82c1.13-.24,2.24-.53,3.34-.84.3-1.19.63-2.35,1-3.51-1.16.38-2.32.71-3.51,1C71.71,46.58,71.42,47.69,71.18,48.82Z"/><path class="cls-2" d="M74.83,37.85A42.85,42.85,0,0,0,79.17,36,50.9,50.9,0,0,1,83,30a41,41,0,0,1-5.87,3.38Q75.88,35.57,74.83,37.85Z"/><path class="cls-2" d="M82,34.47A44.05,44.05,0,0,0,97.77,18.72,48.9,48.9,0,0,0,82,34.47Z"/><path class="cls-2" d="M65.66,51.55c-.16,1.05-.28,2.1-.37,3.16,1.06-.09,2.11-.21,3.16-.37.11-1.08.26-2.16.44-3.23C67.82,51.29,66.74,51.44,65.66,51.55Z"/><path class="cls-2" d="M68.89,68.89c-.18-1.07-.33-2.15-.44-3.23-1-.16-2.1-.28-3.16-.37.09,1.06.21,2.11.37,3.16C66.74,68.56,67.82,68.71,68.89,68.89Z"/><path class="cls-2" d="M70.81,50.77c-.19,1.08-.35,2.16-.48,3.26q1.61-.28,3.18-.66c.15-1.13.33-2.25.55-3.35C73,50.3,71.9,50.55,70.81,50.77Z"/><path class="cls-2" d="M101.28,22.23A44.05,44.05,0,0,0,85.53,38,49,49,0,0,0,101.28,22.23Z"/><path class="cls-2" d="M67.08,44.74c1.15-.17,2.3-.38,3.43-.64.35-1.19.75-2.36,1.19-3.52-1.18.32-2.38.58-3.59.8C67.73,42.49,67.39,43.61,67.08,44.74Z"/><path class="cls-2" d="M65.15,56.56C65.08,57.7,65,58.85,65,60s0,2.3.11,3.44c1.06.09,2.11.21,3.15.35-.08-1.25-.14-2.51-.14-3.79s.06-2.54.14-3.79C67.26,56.35,66.21,56.47,65.15,56.56Z"/><path class="cls-2" d="M74.06,70c-.22-1.1-.4-2.22-.55-3.34-1.05-.25-2.11-.47-3.18-.67.13,1.1.29,2.19.48,3.26C71.9,69.45,73,69.7,74.06,70Z"/><path class="cls-2" d="M79.42,71.7c-.32-1.18-.58-2.38-.8-3.59-1.11-.38-2.23-.72-3.36-1,.17,1.16.39,2.3.64,3.43C77.09,70.87,78.26,71.26,79.42,71.7Z"/><path class="cls-2" d="M90,37a50.9,50.9,0,0,1-6,3.83,42.85,42.85,0,0,0-1.85,4.34q2.28-1.05,4.44-2.3A41,41,0,0,1,90,37Z"/><path class="cls-2" d="M74.74,60A47.84,47.84,0,0,0,75,65.1c1.11.29,2.2.61,3.29,1a43.93,43.93,0,0,1,0-12.12c-1.09.35-2.18.67-3.29,1A47.84,47.84,0,0,0,74.74,60Z"/><path class="cls-2" d="M86.33,33.67a45,45,0,0,1-5.92,3.58c-.76,1.43-1.44,2.9-2.06,4.4,1.5-.62,3-1.3,4.4-2.06A45,45,0,0,1,86.33,33.67Z"/><path class="cls-2" d="M80.07,53.34a43.74,43.74,0,0,0,0,13.32c1.19.42,2.36.88,3.51,1.37a40.7,40.7,0,0,1,0-16.06C82.43,52.46,81.26,52.92,80.07,53.34Z"/><path class="cls-2" d="M75.26,52.92c1.13-.31,2.25-.65,3.36-1,.22-1.21.48-2.41.8-3.59-1.16.44-2.33.83-3.52,1.19C75.65,50.62,75.43,51.77,75.26,52.92Z"/><path class="cls-2" d="M80.44,68.75c.26,1.26.58,2.5.94,3.73,1.39.58,2.73,1.23,4.05,1.92a38,38,0,0,1-1.32-4.12C82.9,69.73,81.68,69.21,80.44,68.75Z"/><path class="cls-2" d="M81.38,47.52c-.36,1.23-.68,2.47-.94,3.73,1.24-.46,2.46-1,3.67-1.53a38.74,38.74,0,0,1,1.32-4.12C84.11,46.29,82.77,46.94,81.38,47.52Z"/><path class="cls-2" d="M81.58,77.94c-.56-1.3-1.06-2.64-1.5-4-1.21-.49-2.43-.94-3.68-1.34.33,1.23.71,2.44,1.13,3.63C78.91,76.74,80.26,77.31,81.58,77.94Z"/><path class="cls-2" d="M86.59,77.13q-2.16-1.25-4.44-2.3A42.85,42.85,0,0,0,84,79.17,49.71,49.71,0,0,1,90,83,41.69,41.69,0,0,1,86.59,77.13Z"/><path class="cls-2" d="M86.33,86.33a44.36,44.36,0,0,1-3.58-5.92c-1.43-.76-2.9-1.44-4.4-2.06.62,1.5,1.3,3,2.06,4.4A45,45,0,0,1,86.33,86.33Z"/><path class="cls-2" d="M11.71,118.19c-.06.6-.1,1.21-.14,1.81h3.15c.07-.93.16-1.85.28-2.77C13.92,117.58,12.82,117.91,11.71,118.19Z"/><path class="cls-2" d="M14.24,107.07c-.43,1.2-.8,2.41-1.14,3.64,1.25-.4,2.48-.85,3.68-1.34a41.85,41.85,0,0,1,1.51-4Q16.31,106.31,14.24,107.07Z"/><path class="cls-2" d="M17.14,114.55c1.25-.47,2.47-1,3.67-1.53a41.41,41.41,0,0,1,1.33-4.13c-1.32.69-2.67,1.34-4.05,1.93C17.72,112,17.4,113.28,17.14,114.55Z"/><path class="cls-2" d="M12,116.22c1.14-.31,2.26-.65,3.36-1,.22-1.21.49-2.42.8-3.6-1.15.44-2.33.84-3.52,1.2C12.35,113.92,12.13,115.06,12,116.22Z"/><path class="cls-2" d="M8.72,108.77c-.31,1.1-.59,2.22-.83,3.34,1.12-.24,2.24-.52,3.34-.83.29-1.19.62-2.36,1-3.51C11.08,108.15,9.91,108.48,8.72,108.77Z"/><path class="cls-2" d="M29.34,108.23a58.87,58.87,0,0,0,15.6-15.59A34.43,34.43,0,0,0,29.34,108.23Z"/><path class="cls-2" d="M60,89.13a33.9,33.9,0,0,0-12,2.2,58.51,58.51,0,0,1-3.42,5,30.94,30.94,0,0,1,30.92,0,58.51,58.51,0,0,1-3.42-5A33.9,33.9,0,0,0,60,89.13Z"/><path class="cls-2" d="M24.27,107.72a39,39,0,0,0-1.63,4.43q2.23-1.11,4.34-2.4a36.07,36.07,0,0,1,3.13-5.93A56,56,0,0,1,24.27,107.72Z"/><path class="cls-2" d="M11.11,97.86A41.41,41.41,0,0,1,7,99.19c-.55,1.2-1.06,2.42-1.53,3.67,1.27-.26,2.51-.58,3.73-1C9.77,100.53,10.42,99.18,11.11,97.86Z"/><path class="cls-2" d="M2,118c1.06-.1,2.12-.22,3.16-.37.12-1.09.27-2.16.44-3.23-1.07.17-2.14.32-3.23.44C2.21,115.89,2.09,117,2,118Z"/><path class="cls-2" d="M7,117.32c1.07-.19,2.13-.41,3.17-.66.15-1.13.33-2.25.55-3.35-1.07.28-2.15.54-3.25.75C7.32,115.14,7.16,116.23,7,117.32Z"/><path class="cls-2" d="M2.68,113c1.09-.12,2.18-.28,3.26-.47.21-1.1.47-2.18.75-3.25-1.1.22-2.22.4-3.35.55C3.09,110.83,2.87,111.89,2.68,113Z"/><path class="cls-2" d="M8.41,103.88c-1.18.31-2.39.58-3.6.8-.38,1.1-.72,2.22-1,3.36,1.16-.17,2.3-.39,3.43-.64C7.57,106.21,8,105,8.41,103.88Z"/><polygon class="cls-2" points="0 120 0 120 0 120 0 120 0 120"/><path class="cls-2" d="M16.18,89.89A35.77,35.77,0,0,1,10.24,93Q9,95.12,7.85,97.36a39,39,0,0,0,4.43-1.63A56,56,0,0,1,16.18,89.89Z"/><path class="cls-2" d="M115.19,104.68c-1.22-.22-2.42-.49-3.6-.8.44,1.15.84,2.33,1.2,3.52,1.13.25,2.27.47,3.43.64C115.91,106.9,115.56,105.78,115.19,104.68Z"/><path class="cls-2" d="M114.41,114.41c.17,1.07.33,2.14.44,3.23,1,.15,2.1.27,3.16.37-.1-1.06-.22-2.12-.37-3.16C116.55,114.73,115.48,114.58,114.41,114.41Z"/><path class="cls-2" d="M109.24,113.31c.22,1.1.39,2.22.54,3.35q1.57.38,3.18.66c-.12-1.09-.28-2.18-.47-3.26C111.39,113.85,110.31,113.59,109.24,113.31Z"/><path class="cls-2" d="M120,0H0L1.85.14C2.91.24,4,.35,5,.5L5,0H6.82c0,.26,0,.52,0,.78C7.92,1,9,1.17,10,1.41c0-.47-.07-.94-.1-1.4h1.68c0,.6.08,1.2.14,1.8,1.11.28,2.21.61,3.29,1-.12-.91-.21-1.84-.28-2.76h1.67c.09,1.13.21,2.25.38,3.36,1.19.42,2.36.87,3.52,1.37A39,39,0,0,1,19.63,0h1.54A38.91,38.91,0,0,0,22,5.53c1.35.63,2.68,1.31,4,2A35.59,35.59,0,0,1,24.48,0H26a34.29,34.29,0,0,0,2,8.73c1.72,1.06,3.39,2.21,5,3.43A31.24,31.24,0,0,1,29.06,0h1.39A29.63,29.63,0,0,0,36.8,15.29a59,59,0,0,1,4.61,4.61A29.57,29.57,0,0,0,60,26.46a29.57,29.57,0,0,0,18.58-6.55,59.23,59.23,0,0,1,4.62-4.62A29.63,29.63,0,0,0,89.55,0h1.39a31,31,0,0,1-4,12.15q2.42-1.83,5-3.42A33.87,33.87,0,0,0,94,0h1.52A35.59,35.59,0,0,1,94,7.56c1.29-.72,2.62-1.4,4-2A38.91,38.91,0,0,0,98.83,0h1.54a41.09,41.09,0,0,1-.66,4.73c1.15-.5,2.33-1,3.52-1.37.17-1.11.29-2.23.38-3.36h1.67c-.07.92-.16,1.85-.28,2.76,1.08-.35,2.18-.68,3.29-1,.06-.6.1-1.2.14-1.8h1.68c0,.46-.06.93-.1,1.4,1-.24,2.07-.44,3.12-.62,0-.26,0-.52.05-.78H115l0,.49c1.05-.15,2.1-.26,3.16-.36L120,0l-.13,1.84c-.1,1.06-.21,2.11-.36,3.16L120,5V6.82l-.78,0c-.18,1-.38,2.09-.62,3.12l1.4-.1v1.68c-.6,0-1.2.08-1.8.14-.28,1.11-.61,2.21-1,3.29.91-.12,1.84-.21,2.76-.28v1.67c-1.13.09-2.25.21-3.36.38-.42,1.19-.87,2.36-1.37,3.52a41.09,41.09,0,0,1,4.73-.66v1.54a38.91,38.91,0,0,0-5.52.86c-.63,1.35-1.31,2.68-2,4A35.72,35.72,0,0,1,120,24.48V26a33.87,33.87,0,0,0-8.73,2q-1.59,2.58-3.42,5a31.14,31.14,0,0,1,12.15-4v1.39a29.63,29.63,0,0,0-15.28,6.35,59.23,59.23,0,0,1-4.62,4.62,29.62,29.62,0,0,0,0,37.17,59,59,0,0,1,4.61,4.61A29.63,29.63,0,0,0,120,89.55v1.39a31.24,31.24,0,0,1-12.16-4c1.22,1.6,2.37,3.27,3.43,5A34.29,34.29,0,0,0,120,94v1.52A35.59,35.59,0,0,1,112.44,94c.72,1.29,1.4,2.62,2,4a38.91,38.91,0,0,0,5.52.86v1.54a41.09,41.09,0,0,1-4.73-.66c.5,1.16.95,2.33,1.37,3.52,1.11.17,2.23.29,3.36.38v1.67c-.92-.07-1.85-.16-2.76-.28.35,1.08.68,2.18,1,3.29.6.06,1.2.1,1.8.14v1.68l-1.4-.1c.24,1,.44,2.07.62,3.12l.78.05V115l-.49,0c.15,1,.26,2.1.36,3.16L120,120h0ZM55.68,0A5.43,5.43,0,0,0,60,2.16,5.45,5.45,0,0,0,64.32,0H65.6A6.51,6.51,0,0,1,60,3.23,6.51,6.51,0,0,1,54.4,0ZM49.91,0A10.64,10.64,0,0,0,60,7.32,10.64,10.64,0,0,0,70.09,0H71.2A11.69,11.69,0,0,1,60,8.39,11.69,11.69,0,0,1,48.8,0ZM45.35,0A15,15,0,0,0,60,11.73,15,15,0,0,0,74.65,0h1.26A16.27,16.27,0,0,1,60,13,16.27,16.27,0,0,1,44.09,0ZM40.72,0A19.61,19.61,0,0,0,60,16.29,19.6,19.6,0,0,0,79.28,0h1.24A20.82,20.82,0,0,1,60,17.51,20.82,20.82,0,0,1,39.48,0ZM60,22.81A26.13,26.13,0,0,1,34.13,0h1.39A24.75,24.75,0,0,0,60,21.44,24.75,24.75,0,0,0,84.48,0h1.39A26.13,26.13,0,0,1,60,22.81Zm60,32.87a5.42,5.42,0,0,0,0,8.64V65.6a6.48,6.48,0,0,1,0-11.2Zm0-5.77a10.62,10.62,0,0,0,0,20.18V71.2a11.67,11.67,0,0,1,0-22.4Zm0-4.56a15,15,0,0,0,0,29.3v1.26a16.25,16.25,0,0,1,0-31.82Zm0-4.63a19.56,19.56,0,0,0,0,38.56v1.24a20.78,20.78,0,0,1,0-41Zm0-5.2a24.7,24.7,0,0,0,0,49v1.39a26.08,26.08,0,0,1,0-51.74Z"/><path class="cls-2" d="M97.86,108.89A41.41,41.41,0,0,1,99.19,113q1.8.83,3.66,1.53a38.38,38.38,0,0,0-.94-3.73C100.53,110.23,99.18,109.58,97.86,108.89Z"/><path class="cls-2" d="M111.28,108.77c-1.19-.29-2.36-.62-3.51-1,.37,1.15.71,2.32,1,3.51,1.1.31,2.22.59,3.34.83C111.87,111,111.59,109.87,111.28,108.77Z"/><path class="cls-2" d="M75.06,92.64a58.76,58.76,0,0,0,15.6,15.6A34.4,34.4,0,0,0,75.06,92.64Z"/><path class="cls-2" d="M89.89,103.82A35.77,35.77,0,0,1,93,109.76c1.4.85,2.85,1.65,4.33,2.39a37.13,37.13,0,0,0-1.62-4.43A56,56,0,0,1,89.89,103.82Z"/><path class="cls-2" d="M105.76,107.07q-2.07-.76-4.05-1.71a41.85,41.85,0,0,1,1.51,4c1.2.49,2.43.94,3.67,1.34C106.56,109.48,106.18,108.27,105.76,107.07Z"/><path class="cls-2" d="M103.88,111.59c.31,1.18.57,2.39.79,3.6,1.11.38,2.23.72,3.37,1-.17-1.16-.39-2.3-.64-3.43C106.21,112.43,105,112,103.88,111.59Z"/><path class="cls-2" d="M116.66,109.79c-1.13-.15-2.25-.33-3.35-.55.28,1.07.54,2.15.75,3.25,1.08.19,2.17.35,3.26.47C117.13,111.89,116.91,110.83,116.66,109.79Z"/><path class="cls-2" d="M19.9,78.59A29.63,29.63,0,0,0,26.46,60a29.57,29.57,0,0,0-6.55-18.58,59.23,59.23,0,0,1-4.62-4.62A29.66,29.66,0,0,0,0,30.45v3.68A26.13,26.13,0,0,1,22.81,60,26.12,26.12,0,0,1,0,85.87v3.68A29.66,29.66,0,0,0,15.29,83.2,59,59,0,0,1,19.9,78.59Z"/><path class="cls-2" d="M7.32,60A10.64,10.64,0,0,0,0,49.91V54.4A6.5,6.5,0,0,1,3.23,60,6.5,6.5,0,0,1,0,65.6v4.49A10.64,10.64,0,0,0,7.32,60Z"/><path class="cls-2" d="M11.73,60A15,15,0,0,0,0,45.35V48.8A11.69,11.69,0,0,1,8.39,60,11.69,11.69,0,0,1,0,71.2v3.45A15,15,0,0,0,11.73,60Z"/><path class="cls-2" d="M12.16,87A31,31,0,0,1,0,90.94V94a33.85,33.85,0,0,0,8.74-2C9.8,90.25,10.94,88.58,12.16,87Z"/><path class="cls-2" d="M16.29,60A19.6,19.6,0,0,0,0,40.72v3.37A16.26,16.26,0,0,1,13,60,16.27,16.27,0,0,1,0,75.91v3.37A19.6,19.6,0,0,0,16.29,60Z"/><path class="cls-2" d="M21.43,60A24.74,24.74,0,0,0,0,35.52v4A20.82,20.82,0,0,1,17.51,60,20.82,20.82,0,0,1,0,80.52v4A24.75,24.75,0,0,0,21.43,60Z"/><path class="cls-2" d="M.5,115,0,115v5l.14-1.84C.23,117.09.35,116,.5,115Z"/><path class="cls-2" d="M7.21,12.6c-1.13-.25-2.27-.47-3.43-.64.31,1.14.65,2.26,1,3.37,1.21.22,2.42.48,3.6.79C8,15,7.57,13.79,7.21,12.6Z"/><path class="cls-2" d="M7.56,94A35.68,35.68,0,0,1,0,95.52v3.31A38.47,38.47,0,0,0,5.52,98C6.16,96.62,6.84,95.29,7.56,94Z"/><path class="cls-2" d="M2.77,105c-.92.12-1.84.21-2.77.28v3.15c.6,0,1.21-.08,1.81-.14C2.09,107.18,2.42,106.08,2.77,105Z"/><path class="cls-2" d="M4.74,99.71a38.9,38.9,0,0,1-4.74.66v3.24c1.14-.09,2.26-.21,3.37-.38C3.79,102,4.24,100.87,4.74,99.71Z"/><path class="cls-2" d="M.14,1.85,0,0V5L.5,5C.35,4,.23,2.91.14,1.85Z"/><path class="cls-2" d="M27.36,75.06a58.57,58.57,0,0,0-15.59,15.6A34.43,34.43,0,0,0,27.36,75.06Z"/><path class="cls-2" d="M12.28,24.27a37.13,37.13,0,0,0-4.43-1.62c.74,1.48,1.54,2.93,2.39,4.33a35.77,35.77,0,0,1,5.94,3.13A56,56,0,0,1,12.28,24.27Z"/><path class="cls-2" d="M9.18,18.09a38.38,38.38,0,0,0-3.73-.94Q6.15,19,7,20.81a41.41,41.41,0,0,1,4.13,1.33C10.42,20.82,9.77,19.47,9.18,18.09Z"/><path class="cls-2" d="M30.87,60a33.9,33.9,0,0,0-2.2-12,58.51,58.51,0,0,1-5-3.42A30.93,30.93,0,0,1,27.83,60a30.93,30.93,0,0,1-4.14,15.46,58.51,58.51,0,0,1,5-3.42A33.9,33.9,0,0,0,30.87,60Z"/><path class="cls-2" d="M11.76,29.34a58.76,58.76,0,0,0,15.6,15.6A34.4,34.4,0,0,0,11.76,29.34Z"/><path class="cls-2" d="M1.81,11.71c-.6-.06-1.21-.1-1.81-.14v3.15c.93.07,1.85.16,2.77.28C2.42,13.92,2.09,12.82,1.81,11.71Z"/><path class="cls-2" d="M8.74,28A33.85,33.85,0,0,0,0,26v3.06a30.81,30.81,0,0,1,12.16,4Q10.33,30.6,8.74,28Z"/><path class="cls-2" d="M5.52,22A38.47,38.47,0,0,0,0,21.17v3.3A36.33,36.33,0,0,1,7.56,26C6.83,24.71,6.16,23.38,5.52,22Z"/><path class="cls-2" d="M3.37,16.77c-1.11-.17-2.23-.29-3.37-.38v3.24a41,41,0,0,1,4.74.66C4.24,19.13,3.79,18,3.37,16.77Z"/><path class="cls-2" d="M2.16,60A5.41,5.41,0,0,0,0,55.68v8.64A5.4,5.4,0,0,0,2.16,60Z"/><path class="cls-2" d="M.79,6.87,0,6.82V9.89l1.41.1C1.17,9,1,7.92.79,6.87Z"/><path class="cls-2" d="M1.41,110l-1.41.1v3.07l.79-.05C1,112.08,1.17,111,1.41,110Z"/><path class="cls-2" d="M41.35,89.07a39.25,39.25,0,0,0-15.58,15.58A53.79,53.79,0,0,0,41.35,89.07Z"/><path class="cls-2" d="M30.7,70.86q1.95-1.1,4-2a38.91,38.91,0,0,0,1-8.82,38.91,38.91,0,0,0-1-8.82q-2-.95-4-2A35.51,35.51,0,0,1,32.4,60,35.46,35.46,0,0,1,30.7,70.86Z"/><path class="cls-2" d="M48.85,85.94a39.67,39.67,0,0,0-4.43,1.62,53.5,53.5,0,0,1-3.89,5.85,35.28,35.28,0,0,1,5.93-3.13C47.32,88.87,48.11,87.42,48.85,85.94Z"/><path class="cls-2" d="M26.59,79.47a53.5,53.5,0,0,1,5.85-3.89,39.67,39.67,0,0,0,1.62-4.43c-1.48.74-2.93,1.53-4.34,2.39A35.28,35.28,0,0,1,26.59,79.47Z"/><path class="cls-2" d="M51.25,80.44c-1.26.26-2.5.58-3.73.94-.58,1.39-1.23,2.73-1.92,4.06a36,36,0,0,1,4.12-1.33C50.27,82.9,50.78,81.68,51.25,80.44Z"/><path class="cls-2" d="M15.35,94.23A39.25,39.25,0,0,0,30.93,78.65,53.79,53.79,0,0,0,15.35,94.23Z"/><path class="cls-2" d="M23,97a46,46,0,0,1-5.91,3.58,47.8,47.8,0,0,0-2.07,4.4,47.8,47.8,0,0,0,4.4-2.07A46,46,0,0,1,23,97Z"/><path class="cls-2" d="M26.68,100.29a49.76,49.76,0,0,1-6,3.83,44.81,44.81,0,0,0-1.84,4.34c1.52-.69,3-1.46,4.44-2.29A39.31,39.31,0,0,1,26.68,100.29Z"/><path class="cls-2" d="M94.23,104.65A39.25,39.25,0,0,0,78.65,89.07,53.79,53.79,0,0,0,94.23,104.65Z"/><path class="cls-2" d="M101.14,108.46a44.81,44.81,0,0,0-1.84-4.34,49.76,49.76,0,0,1-6-3.83,39.31,39.31,0,0,1,3.38,5.88C98.14,107,99.62,107.77,101.14,108.46Z"/><path class="cls-2" d="M102.88,100.55A46,46,0,0,1,97,97a46,46,0,0,1,3.58,5.91A47.8,47.8,0,0,0,105,105,47.8,47.8,0,0,0,102.88,100.55Z"/><path class="cls-2" d="M70.86,89.3q-1.1-2-2-4a38.64,38.64,0,0,0-17.64,0q-.95,2-2,4a35.54,35.54,0,0,1,21.72,0Z"/><path class="cls-2" d="M79.47,93.41a53.5,53.5,0,0,1-3.89-5.85,39.67,39.67,0,0,0-4.43-1.62c.74,1.48,1.53,2.93,2.39,4.34A35.67,35.67,0,0,1,79.47,93.41Z"/><path class="cls-2" d="M72.48,81.38c-1.23-.36-2.47-.68-3.73-.94.46,1.24,1,2.46,1.53,3.67a38.79,38.79,0,0,1,4.12,1.33C73.71,84.11,73.06,82.77,72.48,81.38Z"/><path class="cls-2" d="M49.14,30.7c.73,1.3,1.41,2.62,2,4a39.48,39.48,0,0,0,8.82,1,39.48,39.48,0,0,0,8.82-1c.63-1.36,1.31-2.68,2-4A35.51,35.51,0,0,1,60,32.4,35.46,35.46,0,0,1,49.14,30.7Z"/><path class="cls-2" d="M78.65,30.94A39.34,39.34,0,0,0,94.23,15.35,53.58,53.58,0,0,0,78.65,30.94Z"/><path class="cls-2" d="M71.15,34.06a38.79,38.79,0,0,0,4.42-1.62,54.93,54.93,0,0,1,3.9-5.84,36.39,36.39,0,0,1-5.93,3.12C72.68,31.13,71.89,32.58,71.15,34.06Z"/><path class="cls-2" d="M68.75,39.56c1.26-.26,2.5-.58,3.73-.94.58-1.39,1.23-2.73,1.92-4a41.22,41.22,0,0,1-4.12,1.33C69.73,37.1,69.21,38.32,68.75,39.56Z"/><path class="cls-2" d="M106.17,96.71a40.26,40.26,0,0,1-5.88-3.39,51,51,0,0,1,3.83,6,44.81,44.81,0,0,0,4.34,1.84C107.77,99.62,107,98.14,106.17,96.71Z"/><path class="cls-2" d="M97,23a46,46,0,0,1,5.91-3.58,47.8,47.8,0,0,0,2.07-4.4,47.8,47.8,0,0,0-4.4,2.07A46,46,0,0,1,97,23Z"/><path class="cls-2" d="M93.32,19.71a51,51,0,0,1,6-3.83,44.81,44.81,0,0,0,1.84-4.34c-1.52.69-3,1.46-4.44,2.29A39.31,39.31,0,0,1,93.32,19.71Z"/><path class="cls-2" d="M34.06,48.85a39.67,39.67,0,0,0-1.62-4.43,53.5,53.5,0,0,1-5.85-3.89,35.67,35.67,0,0,1,3.13,5.93C31.13,47.32,32.58,48.11,34.06,48.85Z"/><path class="cls-2" d="M17.12,19.45A46,46,0,0,1,23,23a46,46,0,0,1-3.58-5.91,47.8,47.8,0,0,0-4.4-2.07A47.8,47.8,0,0,0,17.12,19.45Z"/><path class="cls-2" d="M18.86,11.54a44.81,44.81,0,0,0,1.84,4.34,49.76,49.76,0,0,1,6,3.83,40.26,40.26,0,0,1-3.39-5.88C21.86,13,20.38,12.23,18.86,11.54Z"/><path class="cls-2" d="M30.93,41.35A39.25,39.25,0,0,0,15.35,25.77,53.79,53.79,0,0,0,30.93,41.35Z"/><path class="cls-2" d="M47.52,38.62c1.23.36,2.47.68,3.73.94-.46-1.24-1-2.46-1.53-3.66a41.22,41.22,0,0,1-4.12-1.33C46.29,35.89,46.94,37.23,47.52,38.62Z"/><path class="cls-2" d="M40.53,26.59a56.1,56.1,0,0,1,3.9,5.85,38.79,38.79,0,0,0,4.42,1.62c-.74-1.48-1.53-2.93-2.39-4.34A35.67,35.67,0,0,1,40.53,26.59Z"/><path class="cls-2" d="M25.77,15.35A39.34,39.34,0,0,0,41.35,30.94,53.7,53.7,0,0,0,25.77,15.35Z"/><path class="cls-2" d="M89.13,60a33.9,33.9,0,0,0,2.2,12,58.51,58.51,0,0,1,5,3.42,30.94,30.94,0,0,1,0-30.92,57.12,57.12,0,0,1-5,3.42A34.12,34.12,0,0,0,89.13,60Z"/><path class="cls-2" d="M44.94,27.36a58.87,58.87,0,0,0-15.6-15.59A34.38,34.38,0,0,0,44.94,27.36Z"/><path class="cls-2" d="M30.11,16.18A36.07,36.07,0,0,1,27,10.25c-1.4-.86-2.85-1.65-4.34-2.39a39.56,39.56,0,0,0,1.63,4.42A56,56,0,0,1,30.11,16.18Z"/><path class="cls-2" d="M60,30.87a34.12,34.12,0,0,0,12-2.19,57.12,57.12,0,0,1,3.42-5A30.93,30.93,0,0,1,60,27.83a30.93,30.93,0,0,1-15.46-4.14,58.51,58.51,0,0,1,3.42,5A33.9,33.9,0,0,0,60,30.87Z"/><path class="cls-2" d="M22.14,11.11A41.41,41.41,0,0,1,20.81,7c-1.2-.55-2.42-1.06-3.67-1.53.26,1.27.58,2.51.95,3.73C19.47,9.77,20.82,10.42,22.14,11.11Z"/><path class="cls-2" d="M90.66,11.77a58.57,58.57,0,0,0-15.6,15.59A34.38,34.38,0,0,0,90.66,11.77Z"/><path class="cls-2" d="M110.71,106.9c-.4-1.25-.85-2.48-1.34-3.68-1.37-.44-2.71-.94-4-1.51.64,1.32,1.21,2.67,1.72,4.05C108.26,106.19,109.48,106.56,110.71,106.9Z"/><path class="cls-2" d="M16.12,8.41c-.31-1.18-.58-2.38-.8-3.6-1.1-.37-2.22-.72-3.36-1,.17,1.16.39,2.3.64,3.43C13.79,7.57,15,8,16.12,8.41Z"/><path class="cls-2" d="M5.15,2.36C4.11,2.21,3.05,2.09,2,2c.1,1.06.22,2.12.37,3.16,1.09.11,2.16.27,3.23.44C5.42,4.52,5.27,3.45,5.15,2.36Z"/><path class="cls-2" d="M10.76,6.69c-.22-1.1-.4-2.22-.55-3.35-1-.25-2.1-.47-3.17-.66.12,1.09.28,2.18.47,3.26C8.61,6.15,9.69,6.41,10.76,6.69Z"/><path class="cls-2" d="M5.94,7.51C4.86,7.32,3.77,7.16,2.68,7q.28,1.6.66,3.18c1.13.14,2.25.32,3.35.54C6.41,9.69,6.15,8.61,5.94,7.51Z"/><path class="cls-2" d="M8.72,11.23c1.19.29,2.36.63,3.51,1-.38-1.15-.71-2.32-1-3.51-1.1-.31-2.22-.59-3.34-.83C8.13,9,8.41,10.13,8.72,11.23Z"/><path class="cls-2" d="M14.24,12.93q2.07.77,4,1.71a41.85,41.85,0,0,1-1.51-4c-1.2-.49-2.43-.94-3.68-1.34C13.44,10.52,13.81,11.73,14.24,12.93Z"/><path class="cls-2" d="M102.85,5.45Q101,6.15,99.19,7a41.41,41.41,0,0,1-1.33,4.13c1.32-.69,2.67-1.34,4-1.93A38.38,38.38,0,0,0,102.85,5.45Z"/><path class="cls-2" d="M95.73,12.28a37.62,37.62,0,0,0,1.62-4.42c-1.48.74-2.93,1.53-4.33,2.38a35.77,35.77,0,0,1-3.13,5.94A56,56,0,0,1,95.73,12.28Z"/><path class="cls-2" d="M104.65,25.77A39.25,39.25,0,0,0,89.07,41.35,53.79,53.79,0,0,0,104.65,25.77Z"/><path class="cls-2" d="M92.64,44.94a58.72,58.72,0,0,0,15.59-15.6A34.38,34.38,0,0,0,92.64,44.94Z"/><path class="cls-2" d="M103.82,30.11A36.07,36.07,0,0,1,109.75,27c.86-1.4,1.65-2.85,2.39-4.33a37.62,37.62,0,0,0-4.42,1.62A56,56,0,0,1,103.82,30.11Z"/><path class="cls-2" d="M108.23,90.66a58.57,58.57,0,0,0-15.59-15.6A34.38,34.38,0,0,0,108.23,90.66Z"/><path class="cls-2" d="M105.76,12.93c.43-1.2.8-2.41,1.13-3.64-1.24.4-2.47.85-3.67,1.34-.44,1.37-.94,2.71-1.51,4C103,14,104.38,13.44,105.76,12.93Z"/><path class="cls-2" d="M107.72,95.73a39.56,39.56,0,0,0,4.42,1.63c-.74-1.49-1.53-2.94-2.39-4.34a36.07,36.07,0,0,1-5.93-3.13A56,56,0,0,1,107.72,95.73Z"/><path class="cls-2" d="M108.89,22.14A41.41,41.41,0,0,1,113,20.81q.83-1.8,1.53-3.66a38.38,38.38,0,0,0-3.73.94C110.23,19.47,109.58,20.82,108.89,22.14Z"/><path class="cls-2" d="M111.28,11.23c.31-1.1.59-2.22.83-3.34-1.12.24-2.24.52-3.34.83-.29,1.19-.63,2.36-1,3.51C108.92,11.86,110.09,11.52,111.28,11.23Z"/><path class="cls-2" d="M108,3.78c-1.14.31-2.26.66-3.37,1-.22,1.22-.48,2.42-.79,3.6,1.15-.44,2.33-.84,3.52-1.2C107.65,6.08,107.87,4.94,108,3.78Z"/><path class="cls-2" d="M118,2c-1.06.1-2.12.22-3.16.37-.11,1.09-.27,2.16-.44,3.23,1.07-.17,2.14-.33,3.23-.44C117.79,4.11,117.91,3.05,118,2Z"/><path class="cls-2" d="M113,2.68q-1.6.28-3.18.66c-.15,1.13-.32,2.25-.54,3.35,1.07-.28,2.15-.54,3.25-.75C112.68,4.86,112.84,3.77,113,2.68Z"/><path class="cls-2" d="M117.32,7c-1.09.12-2.18.28-3.26.47-.21,1.1-.47,2.18-.75,3.25,1.1-.22,2.22-.4,3.35-.54Q117,8.65,117.32,7Z"/><path class="cls-2" d="M111.59,16.12c1.18-.31,2.38-.57,3.6-.79.37-1.11.72-2.23,1-3.37-1.16.17-2.3.39-3.43.64C112.43,13.79,112,15,111.59,16.12Z"/><path class="cls-2" d="M39.93,66.66A43.06,43.06,0,0,0,40.44,60a43.06,43.06,0,0,0-.51-6.66c-1.19-.42-2.36-.88-3.51-1.37a40.88,40.88,0,0,1,.8,8,40.88,40.88,0,0,1-.8,8C37.57,67.54,38.74,67.08,39.93,66.66Z"/><path class="cls-2" d="M33.67,33.67a45,45,0,0,1,3.58,5.92c1.43.76,2.9,1.44,4.4,2.06-.62-1.5-1.3-3-2.06-4.4A44.36,44.36,0,0,1,33.67,33.67Z"/><path class="cls-2" d="M44.74,52.92c-.17-1.15-.39-2.3-.64-3.43-1.19-.36-2.36-.75-3.52-1.19.32,1.18.58,2.38.8,3.59C42.49,52.27,43.61,52.61,44.74,52.92Z"/><path class="cls-2" d="M43.6,47.41c-.33-1.23-.71-2.44-1.13-3.63-1.38-.52-2.74-1.09-4-1.72.56,1.31,1.06,2.64,1.5,4C41.13,46.56,42.35,47,43.6,47.41Z"/><path class="cls-2" d="M44.74,67.08c-1.13.31-2.25.65-3.36,1-.22,1.21-.48,2.41-.8,3.59,1.16-.44,2.33-.83,3.52-1.19C44.35,69.38,44.57,68.24,44.74,67.08Z"/><path class="cls-2" d="M55.3,73.29c1.55-.15,3.11-.23,4.7-.23s3.15.08,4.7.23c-.23-1-.44-2.07-.62-3.13C62.73,70.06,61.37,70,60,70s-2.73.07-4.08.17C55.74,71.22,55.53,72.26,55.3,73.29Z"/><path class="cls-2" d="M43.6,72.59c-1.25.4-2.47.85-3.68,1.34-.44,1.37-.94,2.71-1.5,4,1.31-.63,2.67-1.2,4-1.72Q43.11,74.44,43.6,72.59Z"/><path class="cls-2" d="M44.47,44.47c.38,1.16.71,2.32,1,3.51,1.1.31,2.21.6,3.34.84-.24-1.13-.53-2.24-.84-3.34C46.79,45.18,45.63,44.85,44.47,44.47Z"/><path class="cls-2" d="M33.67,86.33a44.36,44.36,0,0,1,5.92-3.58c.76-1.43,1.44-2.9,2.06-4.4-1.5.62-3,1.3-4.4,2.06A44.36,44.36,0,0,1,33.67,86.33Z"/><path class="cls-2" d="M34.47,38A44.05,44.05,0,0,0,18.72,22.23,48.9,48.9,0,0,0,34.47,38Z"/><path class="cls-2" d="M22.23,18.72A44.05,44.05,0,0,0,38,34.47,48.9,48.9,0,0,0,22.23,18.72Z"/><path class="cls-2" d="M39.56,51.25c-.26-1.26-.58-2.5-.94-3.73-1.39-.58-2.73-1.23-4.06-1.92a38.84,38.84,0,0,1,1.34,4.12C37.1,50.27,38.32,50.79,39.56,51.25Z"/><path class="cls-2" d="M37.84,45.17A40.63,40.63,0,0,0,36,40.83,50.9,50.9,0,0,1,30,37a41,41,0,0,1,3.38,5.87Q35.57,44.12,37.84,45.17Z"/><path class="cls-2" d="M37,30a50.9,50.9,0,0,1,3.83,6,42.85,42.85,0,0,0,4.34,1.85q-1.05-2.28-2.3-4.44A40.1,40.1,0,0,1,37,30Z"/><path class="cls-2" d="M42.06,38.42c.63,1.32,1.2,2.67,1.72,4,1.19.42,2.4.8,3.63,1.13-.4-1.25-.85-2.47-1.34-3.68C44.7,39.48,43.37,39,42.06,38.42Z"/><path class="cls-2" d="M45.26,60A47.84,47.84,0,0,0,45,54.9c-1.11-.29-2.2-.61-3.29-1A44.79,44.79,0,0,1,42.12,60a44.79,44.79,0,0,1-.42,6.06c1.09-.35,2.18-.67,3.29-1A47.84,47.84,0,0,0,45.26,60Z"/><path class="cls-2" d="M50,45.94c.28,1.07.53,2.16.75,3.25,1.07.19,2.16.35,3.26.47-.2-1.06-.42-2.12-.67-3.17C52.24,46.34,51.12,46.17,50,45.94Z"/><path class="cls-2" d="M53.36,73.51c.25-1.05.47-2.1.67-3.17-1.1.12-2.19.28-3.26.47C50.55,71.9,50.3,73,50,74.06,51.12,73.84,52.24,73.66,53.36,73.51Z"/><path class="cls-2" d="M55,60c0-1.15,0-2.3-.11-3.44-1.06-.09-2.11-.21-3.16-.35.09,1.25.15,2.51.15,3.79s-.06,2.54-.15,3.79c1.05-.14,2.1-.26,3.16-.35C54.92,62.3,55,61.16,55,60Z"/><path class="cls-2" d="M54.34,68.45c.16-1,.28-2.1.37-3.16-1.06.09-2.11.21-3.16.37-.11,1.08-.26,2.16-.44,3.23C52.18,68.71,53.26,68.56,54.34,68.45Z"/><path class="cls-2" d="M54.71,54.71c-.09-1.06-.21-2.11-.37-3.16-1.08-.11-2.16-.26-3.23-.44.18,1.07.33,2.15.44,3.23C52.6,54.5,53.65,54.62,54.71,54.71Z"/><path class="cls-2" d="M60,46.94c-1.59,0-3.15-.08-4.7-.23.23,1,.44,2.08.62,3.13,1.35.1,2.71.17,4.08.17s2.73-.07,4.08-.17c.18-1.05.39-2.09.62-3.13C63.15,46.86,61.59,46.94,60,46.94Z"/><path class="cls-2" d="M66.06,78.3c-.35-1.09-.67-2.18-1-3.29a48.3,48.3,0,0,0-10.2,0c-.29,1.11-.61,2.2-1,3.29a43.93,43.93,0,0,1,12.12,0Z"/><path class="cls-2" d="M49.19,69.23c.19-1.07.35-2.16.47-3.26-1.07.2-2.12.42-3.17.67-.15,1.12-.33,2.24-.55,3.34C47,69.7,48.1,69.45,49.19,69.23Z"/><path class="cls-2" d="M50,60c0-1.37-.07-2.73-.17-4.08-1.05-.18-2.1-.39-3.13-.62.15,1.55.23,3.11.23,4.7s-.08,3.15-.23,4.7c1-.23,2.08-.44,3.13-.62C49.94,62.73,50,61.37,50,60Z"/><path class="cls-2" d="M48.3,40.58c.44,1.16.83,2.33,1.19,3.52,1.13.26,2.27.47,3.43.64-.31-1.13-.65-2.25-1-3.36C50.68,41.16,49.48,40.9,48.3,40.58Z"/><path class="cls-2" d="M60,68.16c1.28,0,2.54.06,3.79.15-.14-1-.26-2.1-.35-3.16C62.3,65.08,61.16,65,60,65s-2.3,0-3.44.11c-.09,1.06-.21,2.11-.35,3.16C57.46,68.22,58.72,68.16,60,68.16Z"/><path class="cls-2" d="M49.66,54c-.12-1.1-.28-2.18-.47-3.26C48.1,50.55,47,50.3,45.94,50c.22,1.1.4,2.22.55,3.35C47.54,53.62,48.59,53.84,49.66,54Z"/><path class="cls-2" d="M52,36.42c.49,1.15,1,2.32,1.37,3.51a43.06,43.06,0,0,0,6.66.51,43.06,43.06,0,0,0,6.66-.51c.42-1.19.88-2.36,1.37-3.51a40.88,40.88,0,0,1-8,.8A40.88,40.88,0,0,1,52,36.42Z"/><path class="cls-2" d="M70,74.06c-.28-1.07-.53-2.16-.75-3.25-1.08-.19-2.16-.35-3.26-.47.19,1.07.41,2.12.66,3.17C67.76,73.66,68.88,73.84,70,74.06Z"/><path class="cls-2" d="M53.94,41.7c.35,1.09.67,2.18,1,3.29a47.84,47.84,0,0,0,5.1.27A47.84,47.84,0,0,0,65.1,45c.29-1.11.61-2.2,1-3.29a44.79,44.79,0,0,1-6.06.42A44.79,44.79,0,0,1,53.94,41.7Z"/><path class="cls-2" d="M75.53,75.53c-.38-1.15-.71-2.32-1-3.51-1.1-.31-2.21-.6-3.34-.84.24,1.13.53,2.24.84,3.34C73.21,74.82,74.37,75.15,75.53,75.53Z"/><path class="cls-2" d="M83,90a50.9,50.9,0,0,1-3.83-6,40.63,40.63,0,0,0-4.34-1.84q1,2.27,2.3,4.43A41,41,0,0,1,83,90Z"/><path class="cls-2" d="M38.62,72.48c.36-1.23.68-2.47.94-3.73-1.24.46-2.46,1-3.66,1.53a41.22,41.22,0,0,1-1.33,4.12C35.89,73.71,37.23,73.06,38.62,72.48Z"/><path class="cls-2" d="M77.94,81.58c-.63-1.31-1.2-2.67-1.72-4q-1.78-.65-3.63-1.14c.4,1.25.85,2.47,1.34,3.68C75.3,80.52,76.63,81,77.94,81.58Z"/><path class="cls-2" d="M71.7,79.42c-.44-1.16-.84-2.33-1.19-3.52-1.13-.25-2.28-.47-3.43-.64.31,1.14.65,2.25,1,3.36C69.32,78.84,70.52,79.1,71.7,79.42Z"/><path class="cls-2" d="M93.4,40.53a54.93,54.93,0,0,1-5.84,3.9,38.79,38.79,0,0,0-1.62,4.42c1.48-.74,2.93-1.53,4.34-2.39A36.39,36.39,0,0,1,93.4,40.53Z"/><path class="cls-2" d="M97.77,101.28A44.05,44.05,0,0,0,82,85.53,48.9,48.9,0,0,0,97.77,101.28Z"/><path class="cls-2" d="M89.3,49.14q-2,1.09-4,2a38.64,38.64,0,0,0,0,17.64q2,.95,4,2a35.54,35.54,0,0,1,0-21.72Z"/><path class="cls-2" d="M85.94,71.15a39.67,39.67,0,0,0,1.62,4.43,52.43,52.43,0,0,1,5.84,3.89,36,36,0,0,1-3.12-5.93C88.87,72.68,87.42,71.89,85.94,71.15Z"/><path class="cls-2" d="M68,83.58c-.49-1.15-1-2.32-1.37-3.51a43.74,43.74,0,0,0-13.32,0c-.42,1.19-.88,2.36-1.37,3.51a40.7,40.7,0,0,1,16.06,0Z"/><path class="cls-2" d="M89.07,78.65a39.25,39.25,0,0,0,15.58,15.58A53.79,53.79,0,0,0,89.07,78.65Z"/><path class="cls-2" d="M85.53,82a44.11,44.11,0,0,0,15.75,15.75A48.77,48.77,0,0,0,85.53,82Z"/><path class="cls-2" d="M60,56.8c-1.11,0-2.21,0-3.3-.1.06,1.09.1,2.19.1,3.3s0,2.21-.1,3.3c1.09-.06,2.19-.1,3.3-.1s2.21,0,3.3.1c-.06-1.09-.1-2.19-.1-3.3s0-2.21.1-3.3C62.21,56.76,61.11,56.8,60,56.8Z"/><path class="cls-2" d="M45.17,82.16A40.63,40.63,0,0,0,40.83,84,49.71,49.71,0,0,1,37,90a41.69,41.69,0,0,1,5.88-3.38Q44.12,84.43,45.17,82.16Z"/><path class="cls-2" d="M38,85.53a44.05,44.05,0,0,0-15.76,15.75A48.9,48.9,0,0,0,38,85.53Z"/><path class="cls-2" d="M30,83a49.71,49.71,0,0,1,6-3.84,40.63,40.63,0,0,0,1.84-4.34q-2.27,1-4.43,2.3A41.69,41.69,0,0,1,30,83Z"/><path class="cls-2" d="M18.72,97.77A44.11,44.11,0,0,0,34.47,82,48.77,48.77,0,0,0,18.72,97.77Z"/><path class="cls-2" d="M47.41,76.4q-1.84.5-3.63,1.14c-.52,1.37-1.09,2.72-1.72,4,1.31-.56,2.64-1.06,4-1.5C46.56,78.87,47,77.65,47.41,76.4Z"/><path class="cls-2" d="M48.82,71.18c-1.13.24-2.24.53-3.34.84-.3,1.19-.63,2.36-1,3.51,1.16-.38,2.32-.71,3.51-1C48.29,73.42,48.58,72.31,48.82,71.18Z"/><path class="cls-2" d="M52.92,75.26c-1.16.17-2.3.39-3.43.64-.36,1.19-.75,2.36-1.19,3.52,1.18-.32,2.38-.58,3.59-.8C52.27,77.51,52.61,76.4,52.92,75.26Z"/><path class="cls-2" d="M63.79,51.7c-1.25.08-2.51.14-3.79.14s-2.54-.06-3.79-.14c.14,1,.26,2.09.35,3.15,1.14.07,2.28.11,3.44.11s2.3,0,3.44-.11C63.53,53.79,63.65,52.74,63.79,51.7Z"/></svg>
