<svg id="svg2" xmlns="http://www.w3.org/2000/svg" viewBox="0 0 2480 2960"><style>.st0{fill:#7c6e62}.st1{fill:#b71c1c}.st2{fill:#fefefe}.st3{fill:none;enable-background:new}</style><path class="st0" d="M2 2930c4-.1 8-.3 12-.3h2451.9c14.1 0 14.1 0 14.1 14.3v18H2v-32zm1205.6-174.2c-4.1-.2-6.9-2.7-9.9-4.4-67.2-38.9-135-76.6-204.8-110.6-73.8-35.9-149.3-67.4-228.5-89.5-50.4-14.1-101.5-24.5-153.7-29.7-1.7-.2-3.3-.7-4.9-.7-4.6-.2-6.6-2.2-6-6.9.3-2.3 0-4.7 0-7V636c0-14.7-3-14.6 14.3-14.6h1249c12.2 0 12-1.8 12 11.7v1022c0 2-.1 4 0 6 .2 3.8-1.5 5.5-5.3 5.4-2-.1-4 0-6 0h-204c-12 0-11.2 1-11.2-11.4v-923c0-16.8 2.3-14.7-15-14.7h-793c-17.3 0-14.8-2.1-14.8 14.8v1774.9c0 16.2-1.9 12.5 13 17.2 65.5 20.9 126.5 51.1 184.5 87.6 64.2 40.4 123.4 87.3 179.6 138.2 1.8 1.4 3.9 2.6 4.7 5.7z"/><path class="st1" d="M1248.8 2767.2c-5.8-6.1-11.8-12.4-17.7-18.7-54-56.5-111.4-109.1-176-153.4-42.7-29.3-87.7-54.4-136.6-72.1-5.4-1.9-7.7-4.6-6.8-10.1.3-1.6 0-3.3 0-5V901.1c0-15.2 0-15.2 15.1-15.2h608.9c14.3 0 12.3-2 12.4 11.9.1 26.7 0 53.3 0 80 0 10.9.5 9.8-9.5 9.9-85 .8-170 1-255 .1-45-.5-90-1.4-135-2.1-2 0-4 .1-6-.1-4.1-.4-5.3 1.6-5 5.3.1 2 0 4 0 6v1468.9c0 2 .2 4 0 6-.4 4 1.4 5.8 5.1 7.1 55.8 19.9 111.2 40.8 169.4 53.3 62.5 13.4 124.4 10.4 186-5.2 51.4-13 101-31.5 151-48.9 4.3-1.5 6.9-3.5 6.2-8.5-.3-2 0-4 0-6v-594.9c0-3.9.9-7.9-1.1-12.4-16.2 3.5-32.4 6.8-48.6 10.4-45.5 10.2-91.2 19.3-137.5 24.6-38.2 4.4-76.5 4.2-114.8 1.6-28.3-1.9-56.4-5.2-84.4-9.4-13.8-2.1-11.4.8-11.5-13-.2-27.7-.1-55.3 0-83 0-7.3.3-7.4 6.2-6.8 67 7.7 134.2 9.7 201.6 5.6 40-2.5 79.5-8.2 118.8-15.1 62.3-11 124.4-23.1 186.9-32.5 21.4-3.2 42.6-7.6 64.5-7 7.7.2 15.2 1.5 22.8 2.9 7.3 1.3 11.8 5.6 14.9 11.9 5.5 10.9 7.9 22.6 8.7 34.6.7 9.6.9 19.3.4 29-1.1 21.7-.7 43.3-.7 65 0 164.6-.1 329.3 0 493.9 0 26.7.5 53.3.7 80 .1 10.3.5 20.6-1.6 30.9-3.1 15.5-11.8 26.5-25.5 33.9-12.5 6.7-26.2 9.7-39.9 12.4-106.3 21.5-210.2 50.9-310.6 92.2-76.9 31.7-150.4 69.8-217.4 119.6-10.4 7.8-20.4 16.1-30.6 24.1-2.4 1.8-4.3 4.4-7.8 5.1z"/><path class="st0" d="M1274 2851.9c7.5.3 14.2-3.1 21.2-5.1 58.1-16.2 116.8-29.2 176.3-39.2 47.9-8.1 96.1-14.4 144.5-19.1 31.1-3.1 62.4-5.3 93.6-7 70.6-4 141.2-6 211.8-4.8 44.3.8 88.6 1.8 132.9 3.9 52.9 2.6 105.8 5.9 158.6 9.9 51.8 3.9 103.5 9.1 155.2 13.9 3.8.3 7.5 1.6 11.2 2.7-94.7-1.6-189.4.6-284 1.6-49.3.5-98.6 2.1-147.9 3.8-47.6 1.6-95.2 3.6-142.8 6-43.9 2.2-87.8 4.9-131.7 8-57.1 4.1-114.2 9-171.1 15.7-57.8 6.8-115.5 14.6-172.3 27.9-21.7 5.1-43.3 10.8-63.8 19.8-1.5.7-3.2 1-4.7 3.6 6.9-.8 13.1-1.4 19.2-2.2 34.3-4.5 68.6-9.2 102.9-13.5 38-4.7 76-9.1 114-13.3 26.8-3 53.6-5.7 80.5-8 43.8-3.7 87.6-7.2 131.5-10.5 63.1-4.7 126.4-7.7 189.7-9.4 66-1.9 132-1.8 198-.6 47.3.9 94.6 3.2 141.8 6.5 52.5 3.6 104.8 9.1 157 15.7 5.6.7 9.8 2.6 13.1 7.7 8 12.2 16.8 24 25.2 36 1.1 1.6 2 3.3 3.6 5.8H39.1c-1.3-2.7 1-4.2 2.2-6 8.3-12.1 17-23.9 25.1-36.1 3.1-4.8 7.1-6.5 12.3-7 14.6-1.5 29.1-3.1 43.7-4.3 40.5-3.3 81-6.5 121.5-9.6 13.6-1 27.3-1.7 40.9-2.2 23-.9 46-1.8 68.9-2.5 52.6-1.6 105.3-2.6 158-1.6 51.3.9 102.6 2.1 153.9 4.2 46.3 1.9 92.5 4.6 138.7 8 54.5 4 108.9 8.6 163.2 14 53 5.2 105.9 11.6 158.8 17.8 29.1 3.4 58 7.5 87.2 11.3-1-3-3.6-3.1-5.7-4-33.7-13.8-69-22.4-104.5-29.7-54.8-11.3-110.2-18.6-165.9-24.4-48.4-5-96.8-9-145.3-12.1-53.9-3.4-107.8-6-161.7-8-49.3-1.8-98.6-3-147.9-4.2-32.3-.8-64.6-.9-97-1.5-92.6-1.7-185.3-1.7-278-2.1H91.4c11.9-4 23.3-4 34.4-5.1 42.1-3.9 84.2-7.8 126.4-11 53.8-4.1 107.7-7.5 161.6-10.1 46.3-2.2 92.6-3.1 138.9-4.3 52-1.3 104 0 155.9 1.5 58.3 1.6 116.5 5.6 174.4 11.8 69.9 7.5 139.2 17.9 207.8 33.3 34.1 7.7 67.9 16.6 101.4 26.4 2.5.7 5.1 1.2 7.7 1.8l-.1.1c-6.5-6.1-15-8-22.9-11.2-51-20.8-103.9-35.4-157.7-47.1-45.6-9.9-91.5-17.4-137.7-23.4-34.3-4.5-68.8-8-103.3-11-54.4-4.7-109-7.7-163.6-10.1-97.6-4.2-195.3-4.1-292.9-3.3-44 .4-88 1.4-132 2.3-15 .3-30 1-45 1.4-4.2.1-8.4 0-12.6-1 21.1-2.3 42.3-4.6 63.4-6.7 32.1-3.2 64.3-6.4 96.4-9.4 25.9-2.4 51.8-4.4 77.7-6.4 56.8-4.4 113.7-7.8 170.6-9.5 61.3-1.8 122.6-2.1 183.9.5 33 1.4 65.9 3.4 98.7 6.7 103.5 10.2 204.8 29.7 301.3 69.9 15.3 6.4 30.4 13.5 45.6 20.3l-.1.2c-1.6-3.8-5.4-4.6-8.5-6.2-60.6-32.9-124.6-57.1-190.8-75.8-60.6-17.1-122.2-29.6-184.5-38.6-59-8.5-118.3-14.3-177.8-18.1-94.2-6.1-188.5-6.5-282.8-4.8-35 .6-69.9 2.3-104.9 3.5-3.4.1-7 .8-12.7-1.2 21.1-3.8 39.9-7.5 58.8-10.5 41.1-6.7 82.3-12.1 123.8-16 59.4-5.6 119-7.6 178.7-7 43.3.4 86.6 2.7 129.7 7 161.9 16.3 316.6 57.9 462.2 131.4 23.5 11.9 46.7 24.3 69.1 38.1 5.2 3.2 9 3.3 14.4.1 108-64.2 223.6-108.9 345.9-136.9 49.3-11.3 99.2-19.6 149.4-25.7 62.9-7.5 126.1-11 189.4-10.8 57.6.1 115.2 3.1 172.6 8.6 49.1 4.7 97.8 11.4 146.5 18.9 4.2.6 8.2 1.7 12.2 3.2-8.9 0-17.8.3-26.7-.1-26-1-51.9-2.4-77.9-3.5-57.3-2.3-114.6-2.8-171.9-1.8-56.3 1-112.5 4.1-168.6 9.4-89 8.4-176.8 23.3-263.1 46.4-71.2 19.1-140.5 43.6-207.7 74-2.3 1-5.2 1.3-6.4 4.1-.5.3-1 .6-1.5.7.1 0-.6.2-.6.2s.6-.2.7-.2c.5-.1.9-.4 1.3-.8 3.9.6 7.2-1.4 10.5-2.6 61.8-23.5 125.6-39.4 190.5-51.2 51.7-9.4 103.9-16 156.3-20.6 51.1-4.4 102.3-6.6 153.6-8.2 55-1.7 109.9-.4 164.9 1.3 55.3 1.7 110.4 5.2 165.5 10 44.7 3.9 89.4 9.1 134.1 13.8 10.9 1.2 21.6 2.9 32.5 5.6-5.4 0-10.8.1-16.2 0-104.3-2.6-208.5-4.6-312.8-4.2-51.3.2-102.6 1.2-153.9 2.8-48.6 1.5-97.2 4-145.6 7.9-77 6.1-153.7 14.8-229.5 29.6-70.4 13.8-139.4 32-205.2 61.3-3 1.3-6.4 1.9-8.5 4.7l-.1-.2zM719.9 521.2c16.4 0 31.6.1 46.8 0 14.7-.1 29.3-.6 44-.3 6.8.1 11.9-1.9 17-6.3 58.8-50.7 117.9-101.1 176.8-151.6 75.4-64.6 150.9-129.2 226.3-193.7 8.4-7.2 8.3-7 16.9-.6 77.4 58 150.1 121.7 223.7 184.3 72.1 61.3 144.1 122.7 216.2 184 2.5 2.1 5.5 3.8 7 7-1.4 3-4.1 1.6-6.1 1.6-23 .1-46-.1-69 .3-6.8.1-11.9-1.9-17.1-6.2-118.4-99.4-237-198.6-355.5-297.9-.8-.6-1.5-1.3-2.3-1.9-6.1-5-6.1-5-12.2.2-35.9 30.8-71.8 61.7-107.6 92.6-80.1 68.9-160.2 137.8-240.2 206.7-3.9 3.4-7.8 5.4-13.3 5.4-87.3.2-174.6.6-261.9 1h-8.9c.7-4.6 3.7-5.7 5.9-7.5l423.3-354c67.7-56.6 135.5-113.3 203.2-169.9 8-6.7 8-6.7 15.9.1 203.9 174.3 407.9 348.5 611.8 522.8 2.7 2.3 5.9 4.1 8.2 8.8h-21.6c-16.3.1-32.7 0-49 .5-5.7.2-10-1.7-14.3-5.3-177-149.8-354.2-299.6-531.3-449.2-4.3-3.6-7.9-9.7-13.4-9.6-5 .1-8.5 5.9-12.5 9.3-166.5 140.2-333 280.7-499.6 421.3-2.2 1.9-5 3.4-7.2 8.1z"/><path class="st2" d="M1334.2 2804.2c.4-2.5 2.2-2.1 3.9-2.1l-.1-.2c-.5 2.2-2.4 1.8-3.9 2.1l.1.2z"/><path class="st2" d="M1334.1 2804c-.7.4-1.4.9-2.1 1.3-.1-.3-.3-.7-.4-1 .9-.1 1.7-.1 2.6-.2 0 .1-.1-.1-.1-.1zm-7.3 2.9c-.1.2-.2.5-.3.5-1 0-1.3-.3-.6-.7.3-.1.6.1.9.2zm-157.1 7.3c.9.1 1.7.2 2.6.3-1.2 2-1.7-.2-2.5-.4.1 0-.1.1-.1.1zm30.1 38c.8.2 1.5.4 2.3.7-.2.1-.5.3-.7.3-.5-.3-1-.7-1.5-1.1 0-.1-.1.1-.1.1zm74.2-.3c-.2 1.1-1.9 1.7-1.9 1.4-.5-2.1 1.5-.6 2.1-1.3-.1.1-.2-.1-.2-.1z"/></svg>