<?xml version="1.0" encoding="UTF-8"?>
<!DOCTYPE svg PUBLIC "-//W3C//DTD SVG 1.1//EN" "http://www.w3.org/Graphics/SVG/1.1/DTD/svg11.dtd">
<!-- Creator: CorelDRAW -->
<svg xmlns="http://www.w3.org/2000/svg" xml:space="preserve" width="159px" height="53px" style="shape-rendering:geometricPrecision; text-rendering:geometricPrecision; image-rendering:optimizeQuality; fill-rule:evenodd; clip-rule:evenodd"
viewBox="0 0 76.3108 33.7417"
 xmlns:xlink="http://www.w3.org/1999/xlink">
 <defs>
  <style type="text/css">
   <![CDATA[
    .fil0 {fill:#047164}
    .fil1 {fill:#D11314}
    .fil2 {fill:#047164;fill-rule:nonzero}
   ]]>
  </style>
 </defs>
 <g id="Слой_x0020_1">
  <metadata id="CorelCorpID_0Corel-Layer"/>
  <polygon class="fil0" points="1.27767,12.1369 3.24752,8.89612 41.4373,8.89612 43.153,0 50.2063,0 60.0556,14.2973 46.3302,33.7417 39.0226,33.7417 36.1632,26.18 41.3102,23.4476 42.8988,28.4676 52.9387,14.1067 46.1395,4.5116 44.9958,12.0733 "/>
  <polygon class="fil1" points="52.1127,0.0635437 58.5306,0.0635437 68.2528,13.9161 54.9086,33.7417 48.3636,33.7417 61.6442,14.1703 "/>
  <polygon class="fil1" points="60.1707,0.0635437 66.5887,0.0635437 76.3108,13.9161 62.9667,33.7417 56.4217,33.7417 69.7023,14.1703 "/>
  <path class="fil2" d="M3.35654 13.4907l5.98416 0c1.22091,0 2.12365,0.0836889 2.71765,0.248649 0.590888,0.165076 1.04387,0.409235 1.36193,0.732595 0.314841,0.321057 0.473815,0.685052 0.473815,1.09199 0,0.508695 -0.222058,0.965358 -0.66295,1.37459 -0.44377,0.409235 -1.16382,0.748366 -2.15957,1.01739 0.545877,0.140096 0.962826,0.298379 1.25372,0.477038 0.291012,0.176357 0.509961,0.384255 0.662835,0.623926 0.153104,0.241973 0.228044,0.497414 0.228044,0.766439 0,0.379881 -0.128929,0.752855 -0.389896,1.11915 -0.261082,0.366297 -0.653971,0.696333 -1.18189,0.985734 -0.527919,0.291587 -1.10672,0.486017 -1.73974,0.58329 -0.89698,0.147002 -1.96767,0.219295 -3.20953,0.219295l-6.1162 0 0.377924 -1.27744 0.318064 0c0.47393,0 0.800858,-0.0406358 0.983892,-0.117533 0.179925,-0.0768971 0.314841,-0.257744 0.404861,-0.544841l1.58974 -5.27908c0.0481183,-0.155981 0.0690693,-0.271327 0.0690693,-0.352714 0,-0.153679 -0.0659612,-0.262233 -0.200992,-0.323244 -0.0930133,-0.0452404 -0.305977,-0.0656158 -0.632905,-0.0656158l-0.519056 0 0.387018 -1.27962zm3.33858 3.7553l1.1789 0c0.719817,0 1.20273,-0.0203754 1.44884,-0.058824 0.452749,-0.0745948 0.815823,-0.230576 1.09175,-0.463455 0.272939,-0.235181 0.410847,-0.513185 0.410847,-0.834242 0,-0.309776 -0.144009,-0.544841 -0.437784,-0.703125 -0.294005,-0.158284 -0.824917,-0.237368 -1.59884,-0.237368l-1.38887 0 -0.704852 2.29701zm-0.401983 1.33166l-0.668821 2.17937c-0.0481183,0.149305 -0.0690693,0.255556 -0.0690693,0.31887 0,0.0790843 0.0330381,0.135606 0.104985,0.171752 0.0509961,0.0248649 0.222058,0.0384486 0.509961,0.0384486l1.00185 0c0.743991,0 1.30184,-0.0610112 1.67378,-0.185336 0.371938,-0.122137 0.6778,-0.316568 0.917931,-0.58329 0.239901,-0.264535 0.359851,-0.540352 0.359851,-0.827565 0,-0.237368 -0.0779332,-0.443079 -0.236908,-0.614947 -0.158974,-0.171752 -0.384025,-0.298379 -0.67803,-0.377464 -0.290897,-0.0791994 -0.76782,-0.119835 -1.42168,-0.119835l-1.49385 0z"/>
  <path id="1" class="fil2" d="M26.3544 13.4907l0.428805 3.47039 -1.82665 0.153794c-0.116957,-0.809377 -0.425927,-1.41086 -0.923802,-1.80869 -0.498105,-0.397954 -1.11892,-0.596874 -1.86291,-0.596874 -0.653741,0 -1.28975,0.155981 -1.90159,0.470247 -0.611954,0.314265 -1.11294,0.77772 -1.49685,1.39036 -0.434906,0.689657 -0.650863,1.3792 -0.650863,2.06644 0,0.549446 0.132037,1.03328 0.39899,1.45828 0.266953,0.422819 0.61771,0.741574 1.04985,0.954077 0.434791,0.212503 0.908721,0.316568 1.42467,0.316568 0.407969,0 0.818931,-0.049845 1.22391,-0.153794 0.407969,-0.103949 0.818816,-0.269025 1.23576,-0.495112 0.416948,-0.223784 0.917931,-0.576498 1.50283,-1.05135l1.26581 0.820773c-0.701859,0.741574 -1.61979,1.34512 -2.75057,1.80869 -0.959948,0.395537 -2.00681,0.594571 -3.13759,0.594571 -1.59274,0 -2.91265,-0.397954 -3.95353,-1.19824 -1.07978,-0.829752 -1.61668,-1.85624 -1.61668,-3.07934 0,-0.92691 0.311963,-1.7973 0.935774,-2.61128 0.623926,-0.811564 1.46991,-1.46047 2.53761,-1.942 1.07092,-0.48383 2.19871,-0.725803 3.38957,-0.725803 0.659957,0 1.29286,0.0724076 1.89584,0.217108 0.416948,0.0971574 0.806844,0.24416 1.16969,0.43859l0.396112 -0.497414 1.26581 0z"/>
  <path id="12" class="fil2" d="M38.9556 13.4907l0.428805 3.47039 -1.82665 0.153794c-0.116957,-0.809377 -0.425927,-1.41086 -0.923802,-1.80869 -0.498105,-0.397954 -1.11892,-0.596874 -1.86291,-0.596874 -0.653741,0 -1.28975,0.155981 -1.90159,0.470247 -0.611954,0.314265 -1.11294,0.77772 -1.49685,1.39036 -0.434906,0.689657 -0.650863,1.3792 -0.650863,2.06644 0,0.549446 0.132037,1.03328 0.39899,1.45828 0.266953,0.422819 0.61771,0.741574 1.04985,0.954077 0.434791,0.212503 0.908721,0.316568 1.42467,0.316568 0.407969,0 0.818931,-0.049845 1.22391,-0.153794 0.407969,-0.103949 0.818816,-0.269025 1.23576,-0.495112 0.416948,-0.223784 0.917931,-0.576498 1.50283,-1.05135l1.26581 0.820773c-0.701859,0.741574 -1.61979,1.34512 -2.75057,1.80869 -0.959948,0.395537 -2.00681,0.594571 -3.13759,0.594571 -1.59274,0 -2.91265,-0.397954 -3.95353,-1.19824 -1.07978,-0.829752 -1.61668,-1.85624 -1.61668,-3.07934 0,-0.92691 0.311963,-1.7973 0.935774,-2.61128 0.623926,-0.811564 1.46991,-1.46047 2.53761,-1.942 1.07092,-0.48383 2.19871,-0.725803 3.38957,-0.725803 0.659957,0 1.29286,0.0724076 1.89584,0.217108 0.416948,0.0971574 0.806844,0.24416 1.16969,0.43859l0.396112 -0.497414 1.26581 0z"/>
 </g>
</svg>
